G04 #@! TF.GenerationSoftware,KiCad,Pcbnew,(5.1.9)-1*
G04 #@! TF.CreationDate,2021-04-11T23:26:30+02:00*
G04 #@! TF.ProjectId,KicadJE_VU_Meter,4b696361-644a-4455-9f56-555f4d657465,rev?*
G04 #@! TF.SameCoordinates,Original*
G04 #@! TF.FileFunction,Paste,Bot*
G04 #@! TF.FilePolarity,Positive*
%FSLAX46Y46*%
G04 Gerber Fmt 4.6, Leading zero omitted, Abs format (unit mm)*
G04 Created by KiCad (PCBNEW (5.1.9)-1) date 2021-04-11 23:26:30*
%MOMM*%
%LPD*%
G01*
G04 APERTURE LIST*
%ADD10R,0.900000X1.200000*%
%ADD11R,1.200000X0.900000*%
%ADD12R,1.000000X2.510000*%
%ADD13R,2.510000X1.000000*%
%ADD14R,1.000000X3.150000*%
%ADD15R,1.700000X1.300000*%
G04 APERTURE END LIST*
G36*
G01*
X134400000Y-118475000D02*
X134400000Y-117525000D01*
G75*
G02*
X134650000Y-117275000I250000J0D01*
G01*
X135150000Y-117275000D01*
G75*
G02*
X135400000Y-117525000I0J-250000D01*
G01*
X135400000Y-118475000D01*
G75*
G02*
X135150000Y-118725000I-250000J0D01*
G01*
X134650000Y-118725000D01*
G75*
G02*
X134400000Y-118475000I0J250000D01*
G01*
G37*
G36*
G01*
X132500000Y-118475000D02*
X132500000Y-117525000D01*
G75*
G02*
X132750000Y-117275000I250000J0D01*
G01*
X133250000Y-117275000D01*
G75*
G02*
X133500000Y-117525000I0J-250000D01*
G01*
X133500000Y-118475000D01*
G75*
G02*
X133250000Y-118725000I-250000J0D01*
G01*
X132750000Y-118725000D01*
G75*
G02*
X132500000Y-118475000I0J250000D01*
G01*
G37*
D10*
X130350000Y-52050000D03*
X133650000Y-52050000D03*
X109650000Y-50000000D03*
X106350000Y-50000000D03*
D11*
X116500000Y-129150000D03*
X116500000Y-125850000D03*
X116500000Y-119150000D03*
X116500000Y-115850000D03*
X116500000Y-110850000D03*
X116500000Y-114150000D03*
X116500000Y-120850000D03*
X116500000Y-124150000D03*
D12*
X110000000Y-154655000D03*
X112540000Y-151345000D03*
X107460000Y-151345000D03*
X107460000Y-104345000D03*
X112540000Y-104345000D03*
X110000000Y-107655000D03*
X107460000Y-132345000D03*
X112540000Y-132345000D03*
X110000000Y-135655000D03*
D13*
X135655000Y-98270000D03*
X132345000Y-95730000D03*
G36*
G01*
X126550000Y-112555000D02*
X126550000Y-112255000D01*
G75*
G02*
X126700000Y-112105000I150000J0D01*
G01*
X128300000Y-112105000D01*
G75*
G02*
X128450000Y-112255000I0J-150000D01*
G01*
X128450000Y-112555000D01*
G75*
G02*
X128300000Y-112705000I-150000J0D01*
G01*
X126700000Y-112705000D01*
G75*
G02*
X126550000Y-112555000I0J150000D01*
G01*
G37*
G36*
G01*
X126550000Y-111285000D02*
X126550000Y-110985000D01*
G75*
G02*
X126700000Y-110835000I150000J0D01*
G01*
X128300000Y-110835000D01*
G75*
G02*
X128450000Y-110985000I0J-150000D01*
G01*
X128450000Y-111285000D01*
G75*
G02*
X128300000Y-111435000I-150000J0D01*
G01*
X126700000Y-111435000D01*
G75*
G02*
X126550000Y-111285000I0J150000D01*
G01*
G37*
G36*
G01*
X126550000Y-110015000D02*
X126550000Y-109715000D01*
G75*
G02*
X126700000Y-109565000I150000J0D01*
G01*
X128300000Y-109565000D01*
G75*
G02*
X128450000Y-109715000I0J-150000D01*
G01*
X128450000Y-110015000D01*
G75*
G02*
X128300000Y-110165000I-150000J0D01*
G01*
X126700000Y-110165000D01*
G75*
G02*
X126550000Y-110015000I0J150000D01*
G01*
G37*
G36*
G01*
X126550000Y-108745000D02*
X126550000Y-108445000D01*
G75*
G02*
X126700000Y-108295000I150000J0D01*
G01*
X128300000Y-108295000D01*
G75*
G02*
X128450000Y-108445000I0J-150000D01*
G01*
X128450000Y-108745000D01*
G75*
G02*
X128300000Y-108895000I-150000J0D01*
G01*
X126700000Y-108895000D01*
G75*
G02*
X126550000Y-108745000I0J150000D01*
G01*
G37*
G36*
G01*
X133550000Y-108745000D02*
X133550000Y-108445000D01*
G75*
G02*
X133700000Y-108295000I150000J0D01*
G01*
X135300000Y-108295000D01*
G75*
G02*
X135450000Y-108445000I0J-150000D01*
G01*
X135450000Y-108745000D01*
G75*
G02*
X135300000Y-108895000I-150000J0D01*
G01*
X133700000Y-108895000D01*
G75*
G02*
X133550000Y-108745000I0J150000D01*
G01*
G37*
G36*
G01*
X133550000Y-110015000D02*
X133550000Y-109715000D01*
G75*
G02*
X133700000Y-109565000I150000J0D01*
G01*
X135300000Y-109565000D01*
G75*
G02*
X135450000Y-109715000I0J-150000D01*
G01*
X135450000Y-110015000D01*
G75*
G02*
X135300000Y-110165000I-150000J0D01*
G01*
X133700000Y-110165000D01*
G75*
G02*
X133550000Y-110015000I0J150000D01*
G01*
G37*
G36*
G01*
X133550000Y-111285000D02*
X133550000Y-110985000D01*
G75*
G02*
X133700000Y-110835000I150000J0D01*
G01*
X135300000Y-110835000D01*
G75*
G02*
X135450000Y-110985000I0J-150000D01*
G01*
X135450000Y-111285000D01*
G75*
G02*
X135300000Y-111435000I-150000J0D01*
G01*
X133700000Y-111435000D01*
G75*
G02*
X133550000Y-111285000I0J150000D01*
G01*
G37*
G36*
G01*
X133550000Y-112555000D02*
X133550000Y-112255000D01*
G75*
G02*
X133700000Y-112105000I150000J0D01*
G01*
X135300000Y-112105000D01*
G75*
G02*
X135450000Y-112255000I0J-150000D01*
G01*
X135450000Y-112555000D01*
G75*
G02*
X135300000Y-112705000I-150000J0D01*
G01*
X133700000Y-112705000D01*
G75*
G02*
X133550000Y-112555000I0J150000D01*
G01*
G37*
D14*
X115920000Y-47700000D03*
X115920000Y-52750000D03*
X118460000Y-47700000D03*
X118460000Y-52750000D03*
X121000000Y-47700000D03*
X121000000Y-52750000D03*
X123540000Y-47700000D03*
X123540000Y-52750000D03*
X126080000Y-47700000D03*
X126080000Y-52750000D03*
G36*
G01*
X138400000Y-51575000D02*
X138400000Y-52525000D01*
G75*
G02*
X138150000Y-52775000I-250000J0D01*
G01*
X137650000Y-52775000D01*
G75*
G02*
X137400000Y-52525000I0J250000D01*
G01*
X137400000Y-51575000D01*
G75*
G02*
X137650000Y-51325000I250000J0D01*
G01*
X138150000Y-51325000D01*
G75*
G02*
X138400000Y-51575000I0J-250000D01*
G01*
G37*
G36*
G01*
X136500000Y-51575000D02*
X136500000Y-52525000D01*
G75*
G02*
X136250000Y-52775000I-250000J0D01*
G01*
X135750000Y-52775000D01*
G75*
G02*
X135500000Y-52525000I0J250000D01*
G01*
X135500000Y-51575000D01*
G75*
G02*
X135750000Y-51325000I250000J0D01*
G01*
X136250000Y-51325000D01*
G75*
G02*
X136500000Y-51575000I0J-250000D01*
G01*
G37*
G36*
G01*
X104450000Y-49525000D02*
X104450000Y-50475000D01*
G75*
G02*
X104200000Y-50725000I-250000J0D01*
G01*
X103700000Y-50725000D01*
G75*
G02*
X103450000Y-50475000I0J250000D01*
G01*
X103450000Y-49525000D01*
G75*
G02*
X103700000Y-49275000I250000J0D01*
G01*
X104200000Y-49275000D01*
G75*
G02*
X104450000Y-49525000I0J-250000D01*
G01*
G37*
G36*
G01*
X102550000Y-49525000D02*
X102550000Y-50475000D01*
G75*
G02*
X102300000Y-50725000I-250000J0D01*
G01*
X101800000Y-50725000D01*
G75*
G02*
X101550000Y-50475000I0J250000D01*
G01*
X101550000Y-49525000D01*
G75*
G02*
X101800000Y-49275000I250000J0D01*
G01*
X102300000Y-49275000D01*
G75*
G02*
X102550000Y-49525000I0J-250000D01*
G01*
G37*
G36*
G01*
X123050000Y-108975000D02*
X123050000Y-108025000D01*
G75*
G02*
X123300000Y-107775000I250000J0D01*
G01*
X123800000Y-107775000D01*
G75*
G02*
X124050000Y-108025000I0J-250000D01*
G01*
X124050000Y-108975000D01*
G75*
G02*
X123800000Y-109225000I-250000J0D01*
G01*
X123300000Y-109225000D01*
G75*
G02*
X123050000Y-108975000I0J250000D01*
G01*
G37*
G36*
G01*
X124950000Y-108975000D02*
X124950000Y-108025000D01*
G75*
G02*
X125200000Y-107775000I250000J0D01*
G01*
X125700000Y-107775000D01*
G75*
G02*
X125950000Y-108025000I0J-250000D01*
G01*
X125950000Y-108975000D01*
G75*
G02*
X125700000Y-109225000I-250000J0D01*
G01*
X125200000Y-109225000D01*
G75*
G02*
X124950000Y-108975000I0J250000D01*
G01*
G37*
G36*
G01*
X134450000Y-115975000D02*
X134450000Y-115025000D01*
G75*
G02*
X134700000Y-114775000I250000J0D01*
G01*
X135200000Y-114775000D01*
G75*
G02*
X135450000Y-115025000I0J-250000D01*
G01*
X135450000Y-115975000D01*
G75*
G02*
X135200000Y-116225000I-250000J0D01*
G01*
X134700000Y-116225000D01*
G75*
G02*
X134450000Y-115975000I0J250000D01*
G01*
G37*
G36*
G01*
X132550000Y-115975000D02*
X132550000Y-115025000D01*
G75*
G02*
X132800000Y-114775000I250000J0D01*
G01*
X133300000Y-114775000D01*
G75*
G02*
X133550000Y-115025000I0J-250000D01*
G01*
X133550000Y-115975000D01*
G75*
G02*
X133300000Y-116225000I-250000J0D01*
G01*
X132800000Y-116225000D01*
G75*
G02*
X132550000Y-115975000I0J250000D01*
G01*
G37*
G36*
G01*
X129850000Y-119525000D02*
X129850000Y-120475000D01*
G75*
G02*
X129600000Y-120725000I-250000J0D01*
G01*
X129100000Y-120725000D01*
G75*
G02*
X128850000Y-120475000I0J250000D01*
G01*
X128850000Y-119525000D01*
G75*
G02*
X129100000Y-119275000I250000J0D01*
G01*
X129600000Y-119275000D01*
G75*
G02*
X129850000Y-119525000I0J-250000D01*
G01*
G37*
G36*
G01*
X131750000Y-119525000D02*
X131750000Y-120475000D01*
G75*
G02*
X131500000Y-120725000I-250000J0D01*
G01*
X131000000Y-120725000D01*
G75*
G02*
X130750000Y-120475000I0J250000D01*
G01*
X130750000Y-119525000D01*
G75*
G02*
X131000000Y-119275000I250000J0D01*
G01*
X131500000Y-119275000D01*
G75*
G02*
X131750000Y-119525000I0J-250000D01*
G01*
G37*
G36*
G01*
X129650001Y-99050000D02*
X128349999Y-99050000D01*
G75*
G02*
X128100000Y-98800001I0J249999D01*
G01*
X128100000Y-98149999D01*
G75*
G02*
X128349999Y-97900000I249999J0D01*
G01*
X129650001Y-97900000D01*
G75*
G02*
X129900000Y-98149999I0J-249999D01*
G01*
X129900000Y-98800001D01*
G75*
G02*
X129650001Y-99050000I-249999J0D01*
G01*
G37*
G36*
G01*
X129650001Y-96100000D02*
X128349999Y-96100000D01*
G75*
G02*
X128100000Y-95850001I0J249999D01*
G01*
X128100000Y-95199999D01*
G75*
G02*
X128349999Y-94950000I249999J0D01*
G01*
X129650001Y-94950000D01*
G75*
G02*
X129900000Y-95199999I0J-249999D01*
G01*
X129900000Y-95850001D01*
G75*
G02*
X129650001Y-96100000I-249999J0D01*
G01*
G37*
G36*
G01*
X133900000Y-47950001D02*
X133900000Y-47049999D01*
G75*
G02*
X134149999Y-46800000I249999J0D01*
G01*
X134850001Y-46800000D01*
G75*
G02*
X135100000Y-47049999I0J-249999D01*
G01*
X135100000Y-47950001D01*
G75*
G02*
X134850001Y-48200000I-249999J0D01*
G01*
X134149999Y-48200000D01*
G75*
G02*
X133900000Y-47950001I0J249999D01*
G01*
G37*
G36*
G01*
X131900000Y-47950001D02*
X131900000Y-47049999D01*
G75*
G02*
X132149999Y-46800000I249999J0D01*
G01*
X132850001Y-46800000D01*
G75*
G02*
X133100000Y-47049999I0J-249999D01*
G01*
X133100000Y-47950001D01*
G75*
G02*
X132850001Y-48200000I-249999J0D01*
G01*
X132149999Y-48200000D01*
G75*
G02*
X131900000Y-47950001I0J249999D01*
G01*
G37*
G36*
G01*
X103100000Y-150049999D02*
X103100000Y-150950001D01*
G75*
G02*
X102850001Y-151200000I-249999J0D01*
G01*
X102149999Y-151200000D01*
G75*
G02*
X101900000Y-150950001I0J249999D01*
G01*
X101900000Y-150049999D01*
G75*
G02*
X102149999Y-149800000I249999J0D01*
G01*
X102850001Y-149800000D01*
G75*
G02*
X103100000Y-150049999I0J-249999D01*
G01*
G37*
G36*
G01*
X105100000Y-150049999D02*
X105100000Y-150950001D01*
G75*
G02*
X104850001Y-151200000I-249999J0D01*
G01*
X104149999Y-151200000D01*
G75*
G02*
X103900000Y-150950001I0J249999D01*
G01*
X103900000Y-150049999D01*
G75*
G02*
X104149999Y-149800000I249999J0D01*
G01*
X104850001Y-149800000D01*
G75*
G02*
X105100000Y-150049999I0J-249999D01*
G01*
G37*
G36*
G01*
X103900000Y-131950001D02*
X103900000Y-131049999D01*
G75*
G02*
X104149999Y-130800000I249999J0D01*
G01*
X104850001Y-130800000D01*
G75*
G02*
X105100000Y-131049999I0J-249999D01*
G01*
X105100000Y-131950001D01*
G75*
G02*
X104850001Y-132200000I-249999J0D01*
G01*
X104149999Y-132200000D01*
G75*
G02*
X103900000Y-131950001I0J249999D01*
G01*
G37*
G36*
G01*
X101900000Y-131950001D02*
X101900000Y-131049999D01*
G75*
G02*
X102149999Y-130800000I249999J0D01*
G01*
X102850001Y-130800000D01*
G75*
G02*
X103100000Y-131049999I0J-249999D01*
G01*
X103100000Y-131950001D01*
G75*
G02*
X102850001Y-132200000I-249999J0D01*
G01*
X102149999Y-132200000D01*
G75*
G02*
X101900000Y-131950001I0J249999D01*
G01*
G37*
G36*
G01*
X116100000Y-150049999D02*
X116100000Y-150950001D01*
G75*
G02*
X115850001Y-151200000I-249999J0D01*
G01*
X115149999Y-151200000D01*
G75*
G02*
X114900000Y-150950001I0J249999D01*
G01*
X114900000Y-150049999D01*
G75*
G02*
X115149999Y-149800000I249999J0D01*
G01*
X115850001Y-149800000D01*
G75*
G02*
X116100000Y-150049999I0J-249999D01*
G01*
G37*
G36*
G01*
X118100000Y-150049999D02*
X118100000Y-150950001D01*
G75*
G02*
X117850001Y-151200000I-249999J0D01*
G01*
X117149999Y-151200000D01*
G75*
G02*
X116900000Y-150950001I0J249999D01*
G01*
X116900000Y-150049999D01*
G75*
G02*
X117149999Y-149800000I249999J0D01*
G01*
X117850001Y-149800000D01*
G75*
G02*
X118100000Y-150049999I0J-249999D01*
G01*
G37*
G36*
G01*
X116950001Y-109600000D02*
X116049999Y-109600000D01*
G75*
G02*
X115800000Y-109350001I0J249999D01*
G01*
X115800000Y-108649999D01*
G75*
G02*
X116049999Y-108400000I249999J0D01*
G01*
X116950001Y-108400000D01*
G75*
G02*
X117200000Y-108649999I0J-249999D01*
G01*
X117200000Y-109350001D01*
G75*
G02*
X116950001Y-109600000I-249999J0D01*
G01*
G37*
G36*
G01*
X116950001Y-107600000D02*
X116049999Y-107600000D01*
G75*
G02*
X115800000Y-107350001I0J249999D01*
G01*
X115800000Y-106649999D01*
G75*
G02*
X116049999Y-106400000I249999J0D01*
G01*
X116950001Y-106400000D01*
G75*
G02*
X117200000Y-106649999I0J-249999D01*
G01*
X117200000Y-107350001D01*
G75*
G02*
X116950001Y-107600000I-249999J0D01*
G01*
G37*
G36*
G01*
X127850000Y-121799999D02*
X127850000Y-122700001D01*
G75*
G02*
X127600001Y-122950000I-249999J0D01*
G01*
X126899999Y-122950000D01*
G75*
G02*
X126650000Y-122700001I0J249999D01*
G01*
X126650000Y-121799999D01*
G75*
G02*
X126899999Y-121550000I249999J0D01*
G01*
X127600001Y-121550000D01*
G75*
G02*
X127850000Y-121799999I0J-249999D01*
G01*
G37*
G36*
G01*
X125850000Y-121799999D02*
X125850000Y-122700001D01*
G75*
G02*
X125600001Y-122950000I-249999J0D01*
G01*
X124899999Y-122950000D01*
G75*
G02*
X124650000Y-122700001I0J249999D01*
G01*
X124650000Y-121799999D01*
G75*
G02*
X124899999Y-121550000I249999J0D01*
G01*
X125600001Y-121550000D01*
G75*
G02*
X125850000Y-121799999I0J-249999D01*
G01*
G37*
G36*
G01*
X103900000Y-101950001D02*
X103900000Y-101049999D01*
G75*
G02*
X104149999Y-100800000I249999J0D01*
G01*
X104850001Y-100800000D01*
G75*
G02*
X105100000Y-101049999I0J-249999D01*
G01*
X105100000Y-101950001D01*
G75*
G02*
X104850001Y-102200000I-249999J0D01*
G01*
X104149999Y-102200000D01*
G75*
G02*
X103900000Y-101950001I0J249999D01*
G01*
G37*
G36*
G01*
X101900000Y-101950001D02*
X101900000Y-101049999D01*
G75*
G02*
X102149999Y-100800000I249999J0D01*
G01*
X102850001Y-100800000D01*
G75*
G02*
X103100000Y-101049999I0J-249999D01*
G01*
X103100000Y-101950001D01*
G75*
G02*
X102850001Y-102200000I-249999J0D01*
G01*
X102149999Y-102200000D01*
G75*
G02*
X101900000Y-101950001I0J249999D01*
G01*
G37*
G36*
G01*
X116049999Y-130400000D02*
X116950001Y-130400000D01*
G75*
G02*
X117200000Y-130649999I0J-249999D01*
G01*
X117200000Y-131350001D01*
G75*
G02*
X116950001Y-131600000I-249999J0D01*
G01*
X116049999Y-131600000D01*
G75*
G02*
X115800000Y-131350001I0J249999D01*
G01*
X115800000Y-130649999D01*
G75*
G02*
X116049999Y-130400000I249999J0D01*
G01*
G37*
G36*
G01*
X116049999Y-132400000D02*
X116950001Y-132400000D01*
G75*
G02*
X117200000Y-132649999I0J-249999D01*
G01*
X117200000Y-133350001D01*
G75*
G02*
X116950001Y-133600000I-249999J0D01*
G01*
X116049999Y-133600000D01*
G75*
G02*
X115800000Y-133350001I0J249999D01*
G01*
X115800000Y-132649999D01*
G75*
G02*
X116049999Y-132400000I249999J0D01*
G01*
G37*
G36*
G01*
X126650000Y-120450001D02*
X126650000Y-119549999D01*
G75*
G02*
X126899999Y-119300000I249999J0D01*
G01*
X127600001Y-119300000D01*
G75*
G02*
X127850000Y-119549999I0J-249999D01*
G01*
X127850000Y-120450001D01*
G75*
G02*
X127600001Y-120700000I-249999J0D01*
G01*
X126899999Y-120700000D01*
G75*
G02*
X126650000Y-120450001I0J249999D01*
G01*
G37*
G36*
G01*
X124650000Y-120450001D02*
X124650000Y-119549999D01*
G75*
G02*
X124899999Y-119300000I249999J0D01*
G01*
X125600001Y-119300000D01*
G75*
G02*
X125850000Y-119549999I0J-249999D01*
G01*
X125850000Y-120450001D01*
G75*
G02*
X125600001Y-120700000I-249999J0D01*
G01*
X124899999Y-120700000D01*
G75*
G02*
X124650000Y-120450001I0J249999D01*
G01*
G37*
G36*
G01*
X120100000Y-110049999D02*
X120100000Y-110950001D01*
G75*
G02*
X119850001Y-111200000I-249999J0D01*
G01*
X119149999Y-111200000D01*
G75*
G02*
X118900000Y-110950001I0J249999D01*
G01*
X118900000Y-110049999D01*
G75*
G02*
X119149999Y-109800000I249999J0D01*
G01*
X119850001Y-109800000D01*
G75*
G02*
X120100000Y-110049999I0J-249999D01*
G01*
G37*
G36*
G01*
X122100000Y-110049999D02*
X122100000Y-110950001D01*
G75*
G02*
X121850001Y-111200000I-249999J0D01*
G01*
X121149999Y-111200000D01*
G75*
G02*
X120900000Y-110950001I0J249999D01*
G01*
X120900000Y-110049999D01*
G75*
G02*
X121149999Y-109800000I249999J0D01*
G01*
X121850001Y-109800000D01*
G75*
G02*
X122100000Y-110049999I0J-249999D01*
G01*
G37*
G36*
G01*
X122100000Y-112549999D02*
X122100000Y-113450001D01*
G75*
G02*
X121850001Y-113700000I-249999J0D01*
G01*
X121149999Y-113700000D01*
G75*
G02*
X120900000Y-113450001I0J249999D01*
G01*
X120900000Y-112549999D01*
G75*
G02*
X121149999Y-112300000I249999J0D01*
G01*
X121850001Y-112300000D01*
G75*
G02*
X122100000Y-112549999I0J-249999D01*
G01*
G37*
G36*
G01*
X120100000Y-112549999D02*
X120100000Y-113450001D01*
G75*
G02*
X119850001Y-113700000I-249999J0D01*
G01*
X119149999Y-113700000D01*
G75*
G02*
X118900000Y-113450001I0J249999D01*
G01*
X118900000Y-112549999D01*
G75*
G02*
X119149999Y-112300000I249999J0D01*
G01*
X119850001Y-112300000D01*
G75*
G02*
X120100000Y-112549999I0J-249999D01*
G01*
G37*
G36*
G01*
X128650000Y-122700001D02*
X128650000Y-121799999D01*
G75*
G02*
X128899999Y-121550000I249999J0D01*
G01*
X129600001Y-121550000D01*
G75*
G02*
X129850000Y-121799999I0J-249999D01*
G01*
X129850000Y-122700001D01*
G75*
G02*
X129600001Y-122950000I-249999J0D01*
G01*
X128899999Y-122950000D01*
G75*
G02*
X128650000Y-122700001I0J249999D01*
G01*
G37*
G36*
G01*
X130650000Y-122700001D02*
X130650000Y-121799999D01*
G75*
G02*
X130899999Y-121550000I249999J0D01*
G01*
X131600001Y-121550000D01*
G75*
G02*
X131850000Y-121799999I0J-249999D01*
G01*
X131850000Y-122700001D01*
G75*
G02*
X131600001Y-122950000I-249999J0D01*
G01*
X130899999Y-122950000D01*
G75*
G02*
X130650000Y-122700001I0J249999D01*
G01*
G37*
G36*
G01*
X122100000Y-115049999D02*
X122100000Y-115950001D01*
G75*
G02*
X121850001Y-116200000I-249999J0D01*
G01*
X121149999Y-116200000D01*
G75*
G02*
X120900000Y-115950001I0J249999D01*
G01*
X120900000Y-115049999D01*
G75*
G02*
X121149999Y-114800000I249999J0D01*
G01*
X121850001Y-114800000D01*
G75*
G02*
X122100000Y-115049999I0J-249999D01*
G01*
G37*
G36*
G01*
X120100000Y-115049999D02*
X120100000Y-115950001D01*
G75*
G02*
X119850001Y-116200000I-249999J0D01*
G01*
X119149999Y-116200000D01*
G75*
G02*
X118900000Y-115950001I0J249999D01*
G01*
X118900000Y-115049999D01*
G75*
G02*
X119149999Y-114800000I249999J0D01*
G01*
X119850001Y-114800000D01*
G75*
G02*
X120100000Y-115049999I0J-249999D01*
G01*
G37*
G36*
G01*
X135850000Y-121799999D02*
X135850000Y-122700001D01*
G75*
G02*
X135600001Y-122950000I-249999J0D01*
G01*
X134899999Y-122950000D01*
G75*
G02*
X134650000Y-122700001I0J249999D01*
G01*
X134650000Y-121799999D01*
G75*
G02*
X134899999Y-121550000I249999J0D01*
G01*
X135600001Y-121550000D01*
G75*
G02*
X135850000Y-121799999I0J-249999D01*
G01*
G37*
G36*
G01*
X133850000Y-121799999D02*
X133850000Y-122700001D01*
G75*
G02*
X133600001Y-122950000I-249999J0D01*
G01*
X132899999Y-122950000D01*
G75*
G02*
X132650000Y-122700001I0J249999D01*
G01*
X132650000Y-121799999D01*
G75*
G02*
X132899999Y-121550000I249999J0D01*
G01*
X133600001Y-121550000D01*
G75*
G02*
X133850000Y-121799999I0J-249999D01*
G01*
G37*
G36*
G01*
X127600000Y-117049999D02*
X127600000Y-117950001D01*
G75*
G02*
X127350001Y-118200000I-249999J0D01*
G01*
X126649999Y-118200000D01*
G75*
G02*
X126400000Y-117950001I0J249999D01*
G01*
X126400000Y-117049999D01*
G75*
G02*
X126649999Y-116800000I249999J0D01*
G01*
X127350001Y-116800000D01*
G75*
G02*
X127600000Y-117049999I0J-249999D01*
G01*
G37*
G36*
G01*
X129600000Y-117049999D02*
X129600000Y-117950001D01*
G75*
G02*
X129350001Y-118200000I-249999J0D01*
G01*
X128649999Y-118200000D01*
G75*
G02*
X128400000Y-117950001I0J249999D01*
G01*
X128400000Y-117049999D01*
G75*
G02*
X128649999Y-116800000I249999J0D01*
G01*
X129350001Y-116800000D01*
G75*
G02*
X129600000Y-117049999I0J-249999D01*
G01*
G37*
G36*
G01*
X130650000Y-124700001D02*
X130650000Y-123799999D01*
G75*
G02*
X130899999Y-123550000I249999J0D01*
G01*
X131600001Y-123550000D01*
G75*
G02*
X131850000Y-123799999I0J-249999D01*
G01*
X131850000Y-124700001D01*
G75*
G02*
X131600001Y-124950000I-249999J0D01*
G01*
X130899999Y-124950000D01*
G75*
G02*
X130650000Y-124700001I0J249999D01*
G01*
G37*
G36*
G01*
X128650000Y-124700001D02*
X128650000Y-123799999D01*
G75*
G02*
X128899999Y-123550000I249999J0D01*
G01*
X129600001Y-123550000D01*
G75*
G02*
X129850000Y-123799999I0J-249999D01*
G01*
X129850000Y-124700001D01*
G75*
G02*
X129600001Y-124950000I-249999J0D01*
G01*
X128899999Y-124950000D01*
G75*
G02*
X128650000Y-124700001I0J249999D01*
G01*
G37*
G36*
G01*
X125100000Y-98049999D02*
X125100000Y-98950001D01*
G75*
G02*
X124850001Y-99200000I-249999J0D01*
G01*
X124149999Y-99200000D01*
G75*
G02*
X123900000Y-98950001I0J249999D01*
G01*
X123900000Y-98049999D01*
G75*
G02*
X124149999Y-97800000I249999J0D01*
G01*
X124850001Y-97800000D01*
G75*
G02*
X125100000Y-98049999I0J-249999D01*
G01*
G37*
G36*
G01*
X127100000Y-98049999D02*
X127100000Y-98950001D01*
G75*
G02*
X126850001Y-99200000I-249999J0D01*
G01*
X126149999Y-99200000D01*
G75*
G02*
X125900000Y-98950001I0J249999D01*
G01*
X125900000Y-98049999D01*
G75*
G02*
X126149999Y-97800000I249999J0D01*
G01*
X126850001Y-97800000D01*
G75*
G02*
X127100000Y-98049999I0J-249999D01*
G01*
G37*
G36*
G01*
X126400000Y-115950001D02*
X126400000Y-115049999D01*
G75*
G02*
X126649999Y-114800000I249999J0D01*
G01*
X127350001Y-114800000D01*
G75*
G02*
X127600000Y-115049999I0J-249999D01*
G01*
X127600000Y-115950001D01*
G75*
G02*
X127350001Y-116200000I-249999J0D01*
G01*
X126649999Y-116200000D01*
G75*
G02*
X126400000Y-115950001I0J249999D01*
G01*
G37*
G36*
G01*
X128400000Y-115950001D02*
X128400000Y-115049999D01*
G75*
G02*
X128649999Y-114800000I249999J0D01*
G01*
X129350001Y-114800000D01*
G75*
G02*
X129600000Y-115049999I0J-249999D01*
G01*
X129600000Y-115950001D01*
G75*
G02*
X129350001Y-116200000I-249999J0D01*
G01*
X128649999Y-116200000D01*
G75*
G02*
X128400000Y-115950001I0J249999D01*
G01*
G37*
G36*
G01*
X127100000Y-95049999D02*
X127100000Y-95950001D01*
G75*
G02*
X126850001Y-96200000I-249999J0D01*
G01*
X126149999Y-96200000D01*
G75*
G02*
X125900000Y-95950001I0J249999D01*
G01*
X125900000Y-95049999D01*
G75*
G02*
X126149999Y-94800000I249999J0D01*
G01*
X126850001Y-94800000D01*
G75*
G02*
X127100000Y-95049999I0J-249999D01*
G01*
G37*
G36*
G01*
X125100000Y-95049999D02*
X125100000Y-95950001D01*
G75*
G02*
X124850001Y-96200000I-249999J0D01*
G01*
X124149999Y-96200000D01*
G75*
G02*
X123900000Y-95950001I0J249999D01*
G01*
X123900000Y-95049999D01*
G75*
G02*
X124149999Y-94800000I249999J0D01*
G01*
X124850001Y-94800000D01*
G75*
G02*
X125100000Y-95049999I0J-249999D01*
G01*
G37*
G36*
G01*
X124800000Y-113450001D02*
X124800000Y-112549999D01*
G75*
G02*
X125049999Y-112300000I249999J0D01*
G01*
X125750001Y-112300000D01*
G75*
G02*
X126000000Y-112549999I0J-249999D01*
G01*
X126000000Y-113450001D01*
G75*
G02*
X125750001Y-113700000I-249999J0D01*
G01*
X125049999Y-113700000D01*
G75*
G02*
X124800000Y-113450001I0J249999D01*
G01*
G37*
G36*
G01*
X122800000Y-113450001D02*
X122800000Y-112549999D01*
G75*
G02*
X123049999Y-112300000I249999J0D01*
G01*
X123750001Y-112300000D01*
G75*
G02*
X124000000Y-112549999I0J-249999D01*
G01*
X124000000Y-113450001D01*
G75*
G02*
X123750001Y-113700000I-249999J0D01*
G01*
X123049999Y-113700000D01*
G75*
G02*
X122800000Y-113450001I0J249999D01*
G01*
G37*
D13*
X108345000Y-95730000D03*
X111655000Y-98270000D03*
D15*
X117500000Y-104750000D03*
X117500000Y-101250000D03*
X117500000Y-95500000D03*
X117500000Y-99000000D03*
X121500000Y-104750000D03*
X121500000Y-101250000D03*
X121500000Y-95500000D03*
X121500000Y-99000000D03*
D12*
X133000000Y-132345000D03*
X130460000Y-135655000D03*
X135540000Y-135655000D03*
G36*
G01*
X126400000Y-136450001D02*
X126400000Y-135549999D01*
G75*
G02*
X126649999Y-135300000I249999J0D01*
G01*
X127350001Y-135300000D01*
G75*
G02*
X127600000Y-135549999I0J-249999D01*
G01*
X127600000Y-136450001D01*
G75*
G02*
X127350001Y-136700000I-249999J0D01*
G01*
X126649999Y-136700000D01*
G75*
G02*
X126400000Y-136450001I0J249999D01*
G01*
G37*
G36*
G01*
X124400000Y-136450001D02*
X124400000Y-135549999D01*
G75*
G02*
X124649999Y-135300000I249999J0D01*
G01*
X125350001Y-135300000D01*
G75*
G02*
X125600000Y-135549999I0J-249999D01*
G01*
X125600000Y-136450001D01*
G75*
G02*
X125350001Y-136700000I-249999J0D01*
G01*
X124649999Y-136700000D01*
G75*
G02*
X124400000Y-136450001I0J249999D01*
G01*
G37*
G36*
G01*
X127600000Y-130549999D02*
X127600000Y-131450001D01*
G75*
G02*
X127350001Y-131700000I-249999J0D01*
G01*
X126649999Y-131700000D01*
G75*
G02*
X126400000Y-131450001I0J249999D01*
G01*
X126400000Y-130549999D01*
G75*
G02*
X126649999Y-130300000I249999J0D01*
G01*
X127350001Y-130300000D01*
G75*
G02*
X127600000Y-130549999I0J-249999D01*
G01*
G37*
G36*
G01*
X125600000Y-130549999D02*
X125600000Y-131450001D01*
G75*
G02*
X125350001Y-131700000I-249999J0D01*
G01*
X124649999Y-131700000D01*
G75*
G02*
X124400000Y-131450001I0J249999D01*
G01*
X124400000Y-130549999D01*
G75*
G02*
X124649999Y-130300000I249999J0D01*
G01*
X125350001Y-130300000D01*
G75*
G02*
X125600000Y-130549999I0J-249999D01*
G01*
G37*
M02*
