G04 #@! TF.GenerationSoftware,KiCad,Pcbnew,(5.1.9)-1*
G04 #@! TF.CreationDate,2021-04-11T23:26:30+02:00*
G04 #@! TF.ProjectId,KicadJE_VU_Meter,4b696361-644a-4455-9f56-555f4d657465,rev?*
G04 #@! TF.SameCoordinates,Original*
G04 #@! TF.FileFunction,Legend,Top*
G04 #@! TF.FilePolarity,Positive*
%FSLAX46Y46*%
G04 Gerber Fmt 4.6, Leading zero omitted, Abs format (unit mm)*
G04 Created by KiCad (PCBNEW (5.1.9)-1) date 2021-04-11 23:26:30*
%MOMM*%
%LPD*%
G01*
G04 APERTURE LIST*
%ADD10C,0.120000*%
%ADD11C,0.500000*%
%ADD12C,1.000000*%
%ADD13C,0.010000*%
%ADD14C,0.150000*%
%ADD15C,10.102000*%
%ADD16O,7.102000X4.102000*%
%ADD17C,35.102000*%
%ADD18C,6.602000*%
G04 APERTURE END LIST*
D10*
X103510000Y-115000000D02*
X103510000Y-112000000D01*
X110510000Y-115000000D02*
X103510000Y-115000000D01*
X103510000Y-125000000D02*
X103510000Y-122000000D01*
X133000000Y-145000000D02*
X103510000Y-145000000D01*
X103510000Y-145000000D02*
X103510000Y-142000000D01*
X110510000Y-125000000D02*
X103510000Y-125000000D01*
D11*
X101843333Y-138357142D02*
X102224285Y-138357142D01*
X102414761Y-138500000D01*
X102605238Y-138785714D01*
X102700476Y-139357142D01*
X102700476Y-140357142D01*
X102605238Y-140928571D01*
X102414761Y-141214285D01*
X102224285Y-141357142D01*
X101843333Y-141357142D01*
X101652857Y-141214285D01*
X101462380Y-140928571D01*
X101367142Y-140357142D01*
X101367142Y-139357142D01*
X101462380Y-138785714D01*
X101652857Y-138500000D01*
X101843333Y-138357142D01*
X104414761Y-139357142D02*
X104414761Y-141357142D01*
X103557619Y-139357142D02*
X103557619Y-140928571D01*
X103652857Y-141214285D01*
X103843333Y-141357142D01*
X104129047Y-141357142D01*
X104319523Y-141214285D01*
X104414761Y-141071428D01*
X105081428Y-139357142D02*
X105843333Y-139357142D01*
X105367142Y-138357142D02*
X105367142Y-140928571D01*
X105462380Y-141214285D01*
X105652857Y-141357142D01*
X105843333Y-141357142D01*
X101652857Y-111357142D02*
X101652857Y-108357142D01*
X102605238Y-109357142D02*
X102605238Y-111357142D01*
X102605238Y-109642857D02*
X102700476Y-109500000D01*
X102890952Y-109357142D01*
X103176666Y-109357142D01*
X103367142Y-109500000D01*
X103462380Y-109785714D01*
X103462380Y-111357142D01*
X105462380Y-111357142D02*
X104319523Y-111357142D01*
X104890952Y-111357142D02*
X104890952Y-108357142D01*
X104700476Y-108785714D01*
X104510000Y-109071428D01*
X104319523Y-109214285D01*
X101652857Y-121357142D02*
X101652857Y-118357142D01*
X102605238Y-119357142D02*
X102605238Y-121357142D01*
X102605238Y-119642857D02*
X102700476Y-119500000D01*
X102890952Y-119357142D01*
X103176666Y-119357142D01*
X103367142Y-119500000D01*
X103462380Y-119785714D01*
X103462380Y-121357142D01*
X104319523Y-118642857D02*
X104414761Y-118500000D01*
X104605238Y-118357142D01*
X105081428Y-118357142D01*
X105271904Y-118500000D01*
X105367142Y-118642857D01*
X105462380Y-118928571D01*
X105462380Y-119214285D01*
X105367142Y-119642857D01*
X104224285Y-121357142D01*
X105462380Y-121357142D01*
D12*
X116571428Y-37214285D02*
X117904761Y-43214285D01*
X119238095Y-37214285D01*
X120571428Y-37214285D02*
X120571428Y-42071428D01*
X120761904Y-42642857D01*
X120952380Y-42928571D01*
X121333333Y-43214285D01*
X122095238Y-43214285D01*
X122476190Y-42928571D01*
X122666666Y-42642857D01*
X122857142Y-42071428D01*
X122857142Y-37214285D01*
D13*
G36*
X125691200Y-159199800D02*
G01*
X125576900Y-159199800D01*
X125576900Y-159072800D01*
X125691200Y-159072800D01*
X125691200Y-159199800D01*
G37*
X125691200Y-159199800D02*
X125576900Y-159199800D01*
X125576900Y-159072800D01*
X125691200Y-159072800D01*
X125691200Y-159199800D01*
G36*
X122643200Y-159199800D02*
G01*
X122528900Y-159199800D01*
X122528900Y-159072800D01*
X122643200Y-159072800D01*
X122643200Y-159199800D01*
G37*
X122643200Y-159199800D02*
X122528900Y-159199800D01*
X122528900Y-159072800D01*
X122643200Y-159072800D01*
X122643200Y-159199800D01*
G36*
X126338114Y-159242318D02*
G01*
X126373195Y-159259123D01*
X126392674Y-159274926D01*
X126434150Y-159311953D01*
X126438239Y-159503526D01*
X126442329Y-159695100D01*
X126338900Y-159695100D01*
X126338900Y-159530907D01*
X126338314Y-159459817D01*
X126336253Y-159409877D01*
X126332258Y-159376854D01*
X126325870Y-159356520D01*
X126318942Y-159346757D01*
X126285287Y-159328974D01*
X126245560Y-159330874D01*
X126206502Y-159350204D01*
X126174851Y-159384714D01*
X126168062Y-159397154D01*
X126156927Y-159433806D01*
X126150505Y-159488629D01*
X126148400Y-159565050D01*
X126148400Y-159695100D01*
X126046800Y-159695100D01*
X126046800Y-159250600D01*
X126097600Y-159250600D01*
X126130192Y-159252142D01*
X126144681Y-159260281D01*
X126148330Y-159280282D01*
X126148400Y-159287430D01*
X126148400Y-159324260D01*
X126191580Y-159281080D01*
X126223768Y-159253238D01*
X126254315Y-159240684D01*
X126292979Y-159237900D01*
X126338114Y-159242318D01*
G37*
X126338114Y-159242318D02*
X126373195Y-159259123D01*
X126392674Y-159274926D01*
X126434150Y-159311953D01*
X126438239Y-159503526D01*
X126442329Y-159695100D01*
X126338900Y-159695100D01*
X126338900Y-159530907D01*
X126338314Y-159459817D01*
X126336253Y-159409877D01*
X126332258Y-159376854D01*
X126325870Y-159356520D01*
X126318942Y-159346757D01*
X126285287Y-159328974D01*
X126245560Y-159330874D01*
X126206502Y-159350204D01*
X126174851Y-159384714D01*
X126168062Y-159397154D01*
X126156927Y-159433806D01*
X126150505Y-159488629D01*
X126148400Y-159565050D01*
X126148400Y-159695100D01*
X126046800Y-159695100D01*
X126046800Y-159250600D01*
X126097600Y-159250600D01*
X126130192Y-159252142D01*
X126144681Y-159260281D01*
X126148330Y-159280282D01*
X126148400Y-159287430D01*
X126148400Y-159324260D01*
X126191580Y-159281080D01*
X126223768Y-159253238D01*
X126254315Y-159240684D01*
X126292979Y-159237900D01*
X126338114Y-159242318D01*
G36*
X125691200Y-159606200D02*
G01*
X125742000Y-159606200D01*
X125774525Y-159607545D01*
X125788979Y-159615854D01*
X125792686Y-159637533D01*
X125792800Y-159650650D01*
X125792800Y-159695100D01*
X125488000Y-159695100D01*
X125488000Y-159650650D01*
X125489965Y-159620858D01*
X125501057Y-159608640D01*
X125529066Y-159606205D01*
X125532450Y-159606200D01*
X125576900Y-159606200D01*
X125576900Y-159339500D01*
X125532450Y-159339500D01*
X125502658Y-159337534D01*
X125490440Y-159326442D01*
X125488005Y-159298433D01*
X125488000Y-159295050D01*
X125488000Y-159250600D01*
X125691200Y-159250600D01*
X125691200Y-159606200D01*
G37*
X125691200Y-159606200D02*
X125742000Y-159606200D01*
X125774525Y-159607545D01*
X125788979Y-159615854D01*
X125792686Y-159637533D01*
X125792800Y-159650650D01*
X125792800Y-159695100D01*
X125488000Y-159695100D01*
X125488000Y-159650650D01*
X125489965Y-159620858D01*
X125501057Y-159608640D01*
X125529066Y-159606205D01*
X125532450Y-159606200D01*
X125576900Y-159606200D01*
X125576900Y-159339500D01*
X125532450Y-159339500D01*
X125502658Y-159337534D01*
X125490440Y-159326442D01*
X125488005Y-159298433D01*
X125488000Y-159295050D01*
X125488000Y-159250600D01*
X125691200Y-159250600D01*
X125691200Y-159606200D01*
G36*
X125233699Y-159240912D02*
G01*
X125258516Y-159250885D01*
X125265016Y-159270931D01*
X125258113Y-159299630D01*
X125247462Y-159325131D01*
X125233608Y-159335481D01*
X125207593Y-159335040D01*
X125190351Y-159332606D01*
X125129116Y-159333141D01*
X125075228Y-159351791D01*
X125035106Y-159385879D01*
X125025293Y-159401368D01*
X125012681Y-159441577D01*
X125006047Y-159497735D01*
X125005400Y-159523019D01*
X125005400Y-159606200D01*
X125056200Y-159606200D01*
X125088725Y-159607545D01*
X125103179Y-159615854D01*
X125106886Y-159637533D01*
X125107000Y-159650650D01*
X125107000Y-159695100D01*
X124802200Y-159695100D01*
X124802200Y-159650650D01*
X124803737Y-159622190D01*
X124813233Y-159609542D01*
X124838010Y-159606299D01*
X124853000Y-159606200D01*
X124903800Y-159606200D01*
X124903800Y-159326800D01*
X124853000Y-159326800D01*
X124820426Y-159325295D01*
X124805946Y-159317142D01*
X124802280Y-159296881D01*
X124802200Y-159288700D01*
X124802200Y-159250600D01*
X125005400Y-159250600D01*
X125005400Y-159332890D01*
X125038393Y-159297307D01*
X125082463Y-159260769D01*
X125133745Y-159242216D01*
X125187201Y-159238094D01*
X125233699Y-159240912D01*
G37*
X125233699Y-159240912D02*
X125258516Y-159250885D01*
X125265016Y-159270931D01*
X125258113Y-159299630D01*
X125247462Y-159325131D01*
X125233608Y-159335481D01*
X125207593Y-159335040D01*
X125190351Y-159332606D01*
X125129116Y-159333141D01*
X125075228Y-159351791D01*
X125035106Y-159385879D01*
X125025293Y-159401368D01*
X125012681Y-159441577D01*
X125006047Y-159497735D01*
X125005400Y-159523019D01*
X125005400Y-159606200D01*
X125056200Y-159606200D01*
X125088725Y-159607545D01*
X125103179Y-159615854D01*
X125106886Y-159637533D01*
X125107000Y-159650650D01*
X125107000Y-159695100D01*
X124802200Y-159695100D01*
X124802200Y-159650650D01*
X124803737Y-159622190D01*
X124813233Y-159609542D01*
X124838010Y-159606299D01*
X124853000Y-159606200D01*
X124903800Y-159606200D01*
X124903800Y-159326800D01*
X124853000Y-159326800D01*
X124820426Y-159325295D01*
X124805946Y-159317142D01*
X124802280Y-159296881D01*
X124802200Y-159288700D01*
X124802200Y-159250600D01*
X125005400Y-159250600D01*
X125005400Y-159332890D01*
X125038393Y-159297307D01*
X125082463Y-159260769D01*
X125133745Y-159242216D01*
X125187201Y-159238094D01*
X125233699Y-159240912D01*
G36*
X123290114Y-159242318D02*
G01*
X123325195Y-159259123D01*
X123344674Y-159274926D01*
X123386150Y-159311953D01*
X123390239Y-159503526D01*
X123394329Y-159695100D01*
X123290900Y-159695100D01*
X123290900Y-159530907D01*
X123290314Y-159459817D01*
X123288253Y-159409877D01*
X123284258Y-159376854D01*
X123277870Y-159356520D01*
X123270942Y-159346757D01*
X123237287Y-159328974D01*
X123197560Y-159330874D01*
X123158502Y-159350204D01*
X123126851Y-159384714D01*
X123120062Y-159397154D01*
X123108927Y-159433806D01*
X123102505Y-159488629D01*
X123100400Y-159565050D01*
X123100400Y-159695100D01*
X122998800Y-159695100D01*
X122998800Y-159250600D01*
X123049600Y-159250600D01*
X123082192Y-159252142D01*
X123096681Y-159260281D01*
X123100330Y-159280282D01*
X123100400Y-159287430D01*
X123100400Y-159324260D01*
X123143580Y-159281080D01*
X123175768Y-159253238D01*
X123206315Y-159240684D01*
X123244979Y-159237900D01*
X123290114Y-159242318D01*
G37*
X123290114Y-159242318D02*
X123325195Y-159259123D01*
X123344674Y-159274926D01*
X123386150Y-159311953D01*
X123390239Y-159503526D01*
X123394329Y-159695100D01*
X123290900Y-159695100D01*
X123290900Y-159530907D01*
X123290314Y-159459817D01*
X123288253Y-159409877D01*
X123284258Y-159376854D01*
X123277870Y-159356520D01*
X123270942Y-159346757D01*
X123237287Y-159328974D01*
X123197560Y-159330874D01*
X123158502Y-159350204D01*
X123126851Y-159384714D01*
X123120062Y-159397154D01*
X123108927Y-159433806D01*
X123102505Y-159488629D01*
X123100400Y-159565050D01*
X123100400Y-159695100D01*
X122998800Y-159695100D01*
X122998800Y-159250600D01*
X123049600Y-159250600D01*
X123082192Y-159252142D01*
X123096681Y-159260281D01*
X123100330Y-159280282D01*
X123100400Y-159287430D01*
X123100400Y-159324260D01*
X123143580Y-159281080D01*
X123175768Y-159253238D01*
X123206315Y-159240684D01*
X123244979Y-159237900D01*
X123290114Y-159242318D01*
G36*
X122643200Y-159606200D02*
G01*
X122694000Y-159606200D01*
X122726525Y-159607545D01*
X122740979Y-159615854D01*
X122744686Y-159637533D01*
X122744800Y-159650650D01*
X122744800Y-159695100D01*
X122440000Y-159695100D01*
X122440000Y-159650650D01*
X122441965Y-159620858D01*
X122453057Y-159608640D01*
X122481066Y-159606205D01*
X122484450Y-159606200D01*
X122528900Y-159606200D01*
X122528900Y-159339500D01*
X122484450Y-159339500D01*
X122454658Y-159337534D01*
X122442440Y-159326442D01*
X122440005Y-159298433D01*
X122440000Y-159295050D01*
X122440000Y-159250600D01*
X122643200Y-159250600D01*
X122643200Y-159606200D01*
G37*
X122643200Y-159606200D02*
X122694000Y-159606200D01*
X122726525Y-159607545D01*
X122740979Y-159615854D01*
X122744686Y-159637533D01*
X122744800Y-159650650D01*
X122744800Y-159695100D01*
X122440000Y-159695100D01*
X122440000Y-159650650D01*
X122441965Y-159620858D01*
X122453057Y-159608640D01*
X122481066Y-159606205D01*
X122484450Y-159606200D01*
X122528900Y-159606200D01*
X122528900Y-159339500D01*
X122484450Y-159339500D01*
X122454658Y-159337534D01*
X122442440Y-159326442D01*
X122440005Y-159298433D01*
X122440000Y-159295050D01*
X122440000Y-159250600D01*
X122643200Y-159250600D01*
X122643200Y-159606200D01*
G36*
X121461314Y-159242318D02*
G01*
X121496395Y-159259123D01*
X121515874Y-159274926D01*
X121557350Y-159311953D01*
X121561439Y-159503526D01*
X121565529Y-159695100D01*
X121462100Y-159695100D01*
X121462100Y-159530907D01*
X121461514Y-159459817D01*
X121459453Y-159409877D01*
X121455458Y-159376854D01*
X121449070Y-159356520D01*
X121442142Y-159346757D01*
X121408487Y-159328974D01*
X121368760Y-159330874D01*
X121329702Y-159350204D01*
X121298051Y-159384714D01*
X121291262Y-159397154D01*
X121280127Y-159433806D01*
X121273705Y-159488629D01*
X121271600Y-159565050D01*
X121271600Y-159695100D01*
X121170000Y-159695100D01*
X121170000Y-159250600D01*
X121220800Y-159250600D01*
X121253392Y-159252142D01*
X121267881Y-159260281D01*
X121271530Y-159280282D01*
X121271600Y-159287430D01*
X121271600Y-159324260D01*
X121314780Y-159281080D01*
X121346968Y-159253238D01*
X121377515Y-159240684D01*
X121416179Y-159237900D01*
X121461314Y-159242318D01*
G37*
X121461314Y-159242318D02*
X121496395Y-159259123D01*
X121515874Y-159274926D01*
X121557350Y-159311953D01*
X121561439Y-159503526D01*
X121565529Y-159695100D01*
X121462100Y-159695100D01*
X121462100Y-159530907D01*
X121461514Y-159459817D01*
X121459453Y-159409877D01*
X121455458Y-159376854D01*
X121449070Y-159356520D01*
X121442142Y-159346757D01*
X121408487Y-159328974D01*
X121368760Y-159330874D01*
X121329702Y-159350204D01*
X121298051Y-159384714D01*
X121291262Y-159397154D01*
X121280127Y-159433806D01*
X121273705Y-159488629D01*
X121271600Y-159565050D01*
X121271600Y-159695100D01*
X121170000Y-159695100D01*
X121170000Y-159250600D01*
X121220800Y-159250600D01*
X121253392Y-159252142D01*
X121267881Y-159260281D01*
X121271530Y-159280282D01*
X121271600Y-159287430D01*
X121271600Y-159324260D01*
X121314780Y-159281080D01*
X121346968Y-159253238D01*
X121377515Y-159240684D01*
X121416179Y-159237900D01*
X121461314Y-159242318D01*
G36*
X120954100Y-159161700D02*
G01*
X120662000Y-159161700D01*
X120662000Y-159339500D01*
X120890600Y-159339500D01*
X120890600Y-159428400D01*
X120662000Y-159428400D01*
X120662000Y-159606200D01*
X120954100Y-159606200D01*
X120954100Y-159695100D01*
X120560400Y-159695100D01*
X120560400Y-159072800D01*
X120954100Y-159072800D01*
X120954100Y-159161700D01*
G37*
X120954100Y-159161700D02*
X120662000Y-159161700D01*
X120662000Y-159339500D01*
X120890600Y-159339500D01*
X120890600Y-159428400D01*
X120662000Y-159428400D01*
X120662000Y-159606200D01*
X120954100Y-159606200D01*
X120954100Y-159695100D01*
X120560400Y-159695100D01*
X120560400Y-159072800D01*
X120954100Y-159072800D01*
X120954100Y-159161700D01*
G36*
X119645214Y-159242318D02*
G01*
X119680295Y-159259123D01*
X119699774Y-159274926D01*
X119741250Y-159311953D01*
X119745339Y-159503526D01*
X119749429Y-159695100D01*
X119646000Y-159695100D01*
X119646000Y-159530907D01*
X119645414Y-159459817D01*
X119643353Y-159409877D01*
X119639358Y-159376854D01*
X119632970Y-159356520D01*
X119626042Y-159346757D01*
X119592387Y-159328974D01*
X119552660Y-159330874D01*
X119513602Y-159350204D01*
X119481951Y-159384714D01*
X119475162Y-159397154D01*
X119464027Y-159433806D01*
X119457605Y-159488629D01*
X119455500Y-159565050D01*
X119455500Y-159695100D01*
X119353900Y-159695100D01*
X119353900Y-159250600D01*
X119404700Y-159250600D01*
X119437292Y-159252142D01*
X119451781Y-159260281D01*
X119455430Y-159280282D01*
X119455500Y-159287430D01*
X119455500Y-159324260D01*
X119498680Y-159281080D01*
X119530868Y-159253238D01*
X119561415Y-159240684D01*
X119600079Y-159237900D01*
X119645214Y-159242318D01*
G37*
X119645214Y-159242318D02*
X119680295Y-159259123D01*
X119699774Y-159274926D01*
X119741250Y-159311953D01*
X119745339Y-159503526D01*
X119749429Y-159695100D01*
X119646000Y-159695100D01*
X119646000Y-159530907D01*
X119645414Y-159459817D01*
X119643353Y-159409877D01*
X119639358Y-159376854D01*
X119632970Y-159356520D01*
X119626042Y-159346757D01*
X119592387Y-159328974D01*
X119552660Y-159330874D01*
X119513602Y-159350204D01*
X119481951Y-159384714D01*
X119475162Y-159397154D01*
X119464027Y-159433806D01*
X119457605Y-159488629D01*
X119455500Y-159565050D01*
X119455500Y-159695100D01*
X119353900Y-159695100D01*
X119353900Y-159250600D01*
X119404700Y-159250600D01*
X119437292Y-159252142D01*
X119451781Y-159260281D01*
X119455430Y-159280282D01*
X119455500Y-159287430D01*
X119455500Y-159324260D01*
X119498680Y-159281080D01*
X119530868Y-159253238D01*
X119561415Y-159240684D01*
X119600079Y-159237900D01*
X119645214Y-159242318D01*
G36*
X117816414Y-159242318D02*
G01*
X117851495Y-159259123D01*
X117870974Y-159274926D01*
X117912450Y-159311953D01*
X117916539Y-159503526D01*
X117920629Y-159695100D01*
X117817200Y-159695100D01*
X117817200Y-159530907D01*
X117816614Y-159459817D01*
X117814553Y-159409877D01*
X117810558Y-159376854D01*
X117804170Y-159356520D01*
X117797242Y-159346757D01*
X117763587Y-159328974D01*
X117723860Y-159330874D01*
X117684802Y-159350204D01*
X117653151Y-159384714D01*
X117646362Y-159397154D01*
X117635227Y-159433806D01*
X117628805Y-159488629D01*
X117626700Y-159565050D01*
X117626700Y-159695100D01*
X117525100Y-159695100D01*
X117525100Y-159250600D01*
X117575900Y-159250600D01*
X117608492Y-159252142D01*
X117622981Y-159260281D01*
X117626630Y-159280282D01*
X117626700Y-159287430D01*
X117626700Y-159324260D01*
X117669880Y-159281080D01*
X117702068Y-159253238D01*
X117732615Y-159240684D01*
X117771279Y-159237900D01*
X117816414Y-159242318D01*
G37*
X117816414Y-159242318D02*
X117851495Y-159259123D01*
X117870974Y-159274926D01*
X117912450Y-159311953D01*
X117916539Y-159503526D01*
X117920629Y-159695100D01*
X117817200Y-159695100D01*
X117817200Y-159530907D01*
X117816614Y-159459817D01*
X117814553Y-159409877D01*
X117810558Y-159376854D01*
X117804170Y-159356520D01*
X117797242Y-159346757D01*
X117763587Y-159328974D01*
X117723860Y-159330874D01*
X117684802Y-159350204D01*
X117653151Y-159384714D01*
X117646362Y-159397154D01*
X117635227Y-159433806D01*
X117628805Y-159488629D01*
X117626700Y-159565050D01*
X117626700Y-159695100D01*
X117525100Y-159695100D01*
X117525100Y-159250600D01*
X117575900Y-159250600D01*
X117608492Y-159252142D01*
X117622981Y-159260281D01*
X117626630Y-159280282D01*
X117626700Y-159287430D01*
X117626700Y-159324260D01*
X117669880Y-159281080D01*
X117702068Y-159253238D01*
X117732615Y-159240684D01*
X117771279Y-159237900D01*
X117816414Y-159242318D01*
G36*
X116407500Y-159327200D02*
G01*
X116443179Y-159287268D01*
X116472611Y-159260600D01*
X116506477Y-159246655D01*
X116542965Y-159241176D01*
X116583943Y-159239143D01*
X116611809Y-159245321D01*
X116638423Y-159263284D01*
X116650161Y-159273485D01*
X116693250Y-159311953D01*
X116697339Y-159503526D01*
X116701429Y-159695100D01*
X116598000Y-159695100D01*
X116598000Y-159530907D01*
X116597414Y-159459817D01*
X116595353Y-159409877D01*
X116591358Y-159376854D01*
X116584970Y-159356520D01*
X116578042Y-159346757D01*
X116544387Y-159328974D01*
X116504660Y-159330874D01*
X116465602Y-159350204D01*
X116433951Y-159384714D01*
X116427162Y-159397154D01*
X116416027Y-159433806D01*
X116409605Y-159488629D01*
X116407500Y-159565050D01*
X116407500Y-159695100D01*
X116305900Y-159695100D01*
X116305900Y-159072800D01*
X116407500Y-159072800D01*
X116407500Y-159327200D01*
G37*
X116407500Y-159327200D02*
X116443179Y-159287268D01*
X116472611Y-159260600D01*
X116506477Y-159246655D01*
X116542965Y-159241176D01*
X116583943Y-159239143D01*
X116611809Y-159245321D01*
X116638423Y-159263284D01*
X116650161Y-159273485D01*
X116693250Y-159311953D01*
X116697339Y-159503526D01*
X116701429Y-159695100D01*
X116598000Y-159695100D01*
X116598000Y-159530907D01*
X116597414Y-159459817D01*
X116595353Y-159409877D01*
X116591358Y-159376854D01*
X116584970Y-159356520D01*
X116578042Y-159346757D01*
X116544387Y-159328974D01*
X116504660Y-159330874D01*
X116465602Y-159350204D01*
X116433951Y-159384714D01*
X116427162Y-159397154D01*
X116416027Y-159433806D01*
X116409605Y-159488629D01*
X116407500Y-159565050D01*
X116407500Y-159695100D01*
X116305900Y-159695100D01*
X116305900Y-159072800D01*
X116407500Y-159072800D01*
X116407500Y-159327200D01*
G36*
X124480413Y-159245787D02*
G01*
X124542081Y-159270491D01*
X124582518Y-159303111D01*
X124617361Y-159355044D01*
X124644231Y-159423481D01*
X124655115Y-159469675D01*
X124663650Y-159517300D01*
X124282044Y-159517300D01*
X124296231Y-159548437D01*
X124322015Y-159579278D01*
X124363617Y-159603967D01*
X124411480Y-159617471D01*
X124429469Y-159618621D01*
X124463706Y-159613124D01*
X124505711Y-159599704D01*
X124519304Y-159593985D01*
X124572959Y-159569628D01*
X124598501Y-159602101D01*
X124624044Y-159634573D01*
X124592542Y-159659353D01*
X124534692Y-159690285D01*
X124464466Y-159705651D01*
X124390081Y-159704756D01*
X124319751Y-159686909D01*
X124310914Y-159683118D01*
X124254086Y-159644411D01*
X124213056Y-159590243D01*
X124188965Y-159525896D01*
X124182956Y-159456654D01*
X124192211Y-159408435D01*
X124293971Y-159408435D01*
X124304865Y-159419892D01*
X124336586Y-159426036D01*
X124391057Y-159428276D01*
X124414850Y-159428400D01*
X124474137Y-159427503D01*
X124511624Y-159424482D01*
X124530856Y-159418842D01*
X124535500Y-159411563D01*
X124526899Y-159392145D01*
X124505878Y-159366977D01*
X124502726Y-159363938D01*
X124468051Y-159341118D01*
X124423684Y-159333285D01*
X124414850Y-159333150D01*
X124367831Y-159338951D01*
X124332384Y-159359083D01*
X124326973Y-159363938D01*
X124301981Y-159390254D01*
X124293971Y-159408435D01*
X124192211Y-159408435D01*
X124196172Y-159387800D01*
X124229753Y-159324617D01*
X124232623Y-159320889D01*
X124282212Y-159276662D01*
X124344216Y-159249191D01*
X124412370Y-159238794D01*
X124480413Y-159245787D01*
G37*
X124480413Y-159245787D02*
X124542081Y-159270491D01*
X124582518Y-159303111D01*
X124617361Y-159355044D01*
X124644231Y-159423481D01*
X124655115Y-159469675D01*
X124663650Y-159517300D01*
X124282044Y-159517300D01*
X124296231Y-159548437D01*
X124322015Y-159579278D01*
X124363617Y-159603967D01*
X124411480Y-159617471D01*
X124429469Y-159618621D01*
X124463706Y-159613124D01*
X124505711Y-159599704D01*
X124519304Y-159593985D01*
X124572959Y-159569628D01*
X124598501Y-159602101D01*
X124624044Y-159634573D01*
X124592542Y-159659353D01*
X124534692Y-159690285D01*
X124464466Y-159705651D01*
X124390081Y-159704756D01*
X124319751Y-159686909D01*
X124310914Y-159683118D01*
X124254086Y-159644411D01*
X124213056Y-159590243D01*
X124188965Y-159525896D01*
X124182956Y-159456654D01*
X124192211Y-159408435D01*
X124293971Y-159408435D01*
X124304865Y-159419892D01*
X124336586Y-159426036D01*
X124391057Y-159428276D01*
X124414850Y-159428400D01*
X124474137Y-159427503D01*
X124511624Y-159424482D01*
X124530856Y-159418842D01*
X124535500Y-159411563D01*
X124526899Y-159392145D01*
X124505878Y-159366977D01*
X124502726Y-159363938D01*
X124468051Y-159341118D01*
X124423684Y-159333285D01*
X124414850Y-159333150D01*
X124367831Y-159338951D01*
X124332384Y-159359083D01*
X124326973Y-159363938D01*
X124301981Y-159390254D01*
X124293971Y-159408435D01*
X124192211Y-159408435D01*
X124196172Y-159387800D01*
X124229753Y-159324617D01*
X124232623Y-159320889D01*
X124282212Y-159276662D01*
X124344216Y-159249191D01*
X124412370Y-159238794D01*
X124480413Y-159245787D01*
G36*
X123870813Y-159245787D02*
G01*
X123932481Y-159270491D01*
X123972918Y-159303111D01*
X124007761Y-159355044D01*
X124034631Y-159423481D01*
X124045515Y-159469675D01*
X124054050Y-159517300D01*
X123672444Y-159517300D01*
X123686631Y-159548437D01*
X123712415Y-159579278D01*
X123754017Y-159603967D01*
X123801880Y-159617471D01*
X123819869Y-159618621D01*
X123854106Y-159613124D01*
X123896111Y-159599704D01*
X123909704Y-159593985D01*
X123963359Y-159569628D01*
X123988901Y-159602101D01*
X124014444Y-159634573D01*
X123982942Y-159659353D01*
X123925092Y-159690285D01*
X123854866Y-159705651D01*
X123780481Y-159704756D01*
X123710151Y-159686909D01*
X123701314Y-159683118D01*
X123644486Y-159644411D01*
X123603456Y-159590243D01*
X123579365Y-159525896D01*
X123573356Y-159456654D01*
X123582611Y-159408435D01*
X123684371Y-159408435D01*
X123695265Y-159419892D01*
X123726986Y-159426036D01*
X123781457Y-159428276D01*
X123805250Y-159428400D01*
X123864537Y-159427503D01*
X123902024Y-159424482D01*
X123921256Y-159418842D01*
X123925900Y-159411563D01*
X123917299Y-159392145D01*
X123896278Y-159366977D01*
X123893126Y-159363938D01*
X123858451Y-159341118D01*
X123814084Y-159333285D01*
X123805250Y-159333150D01*
X123758231Y-159338951D01*
X123722784Y-159359083D01*
X123717373Y-159363938D01*
X123692381Y-159390254D01*
X123684371Y-159408435D01*
X123582611Y-159408435D01*
X123586572Y-159387800D01*
X123620153Y-159324617D01*
X123623023Y-159320889D01*
X123672612Y-159276662D01*
X123734616Y-159249191D01*
X123802770Y-159238794D01*
X123870813Y-159245787D01*
G37*
X123870813Y-159245787D02*
X123932481Y-159270491D01*
X123972918Y-159303111D01*
X124007761Y-159355044D01*
X124034631Y-159423481D01*
X124045515Y-159469675D01*
X124054050Y-159517300D01*
X123672444Y-159517300D01*
X123686631Y-159548437D01*
X123712415Y-159579278D01*
X123754017Y-159603967D01*
X123801880Y-159617471D01*
X123819869Y-159618621D01*
X123854106Y-159613124D01*
X123896111Y-159599704D01*
X123909704Y-159593985D01*
X123963359Y-159569628D01*
X123988901Y-159602101D01*
X124014444Y-159634573D01*
X123982942Y-159659353D01*
X123925092Y-159690285D01*
X123854866Y-159705651D01*
X123780481Y-159704756D01*
X123710151Y-159686909D01*
X123701314Y-159683118D01*
X123644486Y-159644411D01*
X123603456Y-159590243D01*
X123579365Y-159525896D01*
X123573356Y-159456654D01*
X123582611Y-159408435D01*
X123684371Y-159408435D01*
X123695265Y-159419892D01*
X123726986Y-159426036D01*
X123781457Y-159428276D01*
X123805250Y-159428400D01*
X123864537Y-159427503D01*
X123902024Y-159424482D01*
X123921256Y-159418842D01*
X123925900Y-159411563D01*
X123917299Y-159392145D01*
X123896278Y-159366977D01*
X123893126Y-159363938D01*
X123858451Y-159341118D01*
X123814084Y-159333285D01*
X123805250Y-159333150D01*
X123758231Y-159338951D01*
X123722784Y-159359083D01*
X123717373Y-159363938D01*
X123692381Y-159390254D01*
X123684371Y-159408435D01*
X123582611Y-159408435D01*
X123586572Y-159387800D01*
X123620153Y-159324617D01*
X123623023Y-159320889D01*
X123672612Y-159276662D01*
X123734616Y-159249191D01*
X123802770Y-159238794D01*
X123870813Y-159245787D01*
G36*
X119006713Y-159245787D02*
G01*
X119068381Y-159270491D01*
X119108818Y-159303111D01*
X119143661Y-159355044D01*
X119170531Y-159423481D01*
X119181415Y-159469675D01*
X119189950Y-159517300D01*
X118808344Y-159517300D01*
X118822531Y-159548437D01*
X118848315Y-159579278D01*
X118889917Y-159603967D01*
X118937780Y-159617471D01*
X118955769Y-159618621D01*
X118990006Y-159613124D01*
X119032011Y-159599704D01*
X119045604Y-159593985D01*
X119099259Y-159569628D01*
X119124801Y-159602101D01*
X119150344Y-159634573D01*
X119118842Y-159659353D01*
X119060992Y-159690285D01*
X118990766Y-159705651D01*
X118916381Y-159704756D01*
X118846051Y-159686909D01*
X118837214Y-159683118D01*
X118780386Y-159644411D01*
X118739356Y-159590243D01*
X118715265Y-159525896D01*
X118709256Y-159456654D01*
X118718511Y-159408435D01*
X118820271Y-159408435D01*
X118831165Y-159419892D01*
X118862886Y-159426036D01*
X118917357Y-159428276D01*
X118941150Y-159428400D01*
X119000437Y-159427503D01*
X119037924Y-159424482D01*
X119057156Y-159418842D01*
X119061800Y-159411563D01*
X119053199Y-159392145D01*
X119032178Y-159366977D01*
X119029026Y-159363938D01*
X118994351Y-159341118D01*
X118949984Y-159333285D01*
X118941150Y-159333150D01*
X118894131Y-159338951D01*
X118858684Y-159359083D01*
X118853273Y-159363938D01*
X118828281Y-159390254D01*
X118820271Y-159408435D01*
X118718511Y-159408435D01*
X118722472Y-159387800D01*
X118756053Y-159324617D01*
X118758923Y-159320889D01*
X118808512Y-159276662D01*
X118870516Y-159249191D01*
X118938670Y-159238794D01*
X119006713Y-159245787D01*
G37*
X119006713Y-159245787D02*
X119068381Y-159270491D01*
X119108818Y-159303111D01*
X119143661Y-159355044D01*
X119170531Y-159423481D01*
X119181415Y-159469675D01*
X119189950Y-159517300D01*
X118808344Y-159517300D01*
X118822531Y-159548437D01*
X118848315Y-159579278D01*
X118889917Y-159603967D01*
X118937780Y-159617471D01*
X118955769Y-159618621D01*
X118990006Y-159613124D01*
X119032011Y-159599704D01*
X119045604Y-159593985D01*
X119099259Y-159569628D01*
X119124801Y-159602101D01*
X119150344Y-159634573D01*
X119118842Y-159659353D01*
X119060992Y-159690285D01*
X118990766Y-159705651D01*
X118916381Y-159704756D01*
X118846051Y-159686909D01*
X118837214Y-159683118D01*
X118780386Y-159644411D01*
X118739356Y-159590243D01*
X118715265Y-159525896D01*
X118709256Y-159456654D01*
X118718511Y-159408435D01*
X118820271Y-159408435D01*
X118831165Y-159419892D01*
X118862886Y-159426036D01*
X118917357Y-159428276D01*
X118941150Y-159428400D01*
X119000437Y-159427503D01*
X119037924Y-159424482D01*
X119057156Y-159418842D01*
X119061800Y-159411563D01*
X119053199Y-159392145D01*
X119032178Y-159366977D01*
X119029026Y-159363938D01*
X118994351Y-159341118D01*
X118949984Y-159333285D01*
X118941150Y-159333150D01*
X118894131Y-159338951D01*
X118858684Y-159359083D01*
X118853273Y-159363938D01*
X118828281Y-159390254D01*
X118820271Y-159408435D01*
X118718511Y-159408435D01*
X118722472Y-159387800D01*
X118756053Y-159324617D01*
X118758923Y-159320889D01*
X118808512Y-159276662D01*
X118870516Y-159249191D01*
X118938670Y-159238794D01*
X119006713Y-159245787D01*
G36*
X118400632Y-159244386D02*
G01*
X118455840Y-159258028D01*
X118495922Y-159278107D01*
X118500489Y-159281961D01*
X118509083Y-159303001D01*
X118504268Y-159328982D01*
X118490296Y-159350658D01*
X118471419Y-159358784D01*
X118465812Y-159357362D01*
X118415036Y-159341203D01*
X118360246Y-159332510D01*
X118307734Y-159331212D01*
X118263790Y-159337235D01*
X118234704Y-159350507D01*
X118227596Y-159360104D01*
X118225073Y-159376955D01*
X118234520Y-159390282D01*
X118259387Y-159401783D01*
X118303120Y-159413152D01*
X118357231Y-159423894D01*
X118433536Y-159441949D01*
X118487294Y-159464676D01*
X118521223Y-159494158D01*
X118538045Y-159532478D01*
X118541100Y-159564728D01*
X118529745Y-159615487D01*
X118498029Y-159656412D01*
X118449475Y-159686315D01*
X118387607Y-159704004D01*
X118315947Y-159708289D01*
X118238019Y-159697982D01*
X118188425Y-159683852D01*
X118150170Y-159669782D01*
X118122498Y-159658020D01*
X118113690Y-159652924D01*
X118112751Y-159637125D01*
X118120877Y-159609004D01*
X118122234Y-159605634D01*
X118131168Y-159585529D01*
X118141020Y-159575070D01*
X118157453Y-159573986D01*
X118186129Y-159582007D01*
X118232712Y-159598863D01*
X118236300Y-159600186D01*
X118310662Y-159615855D01*
X118354522Y-159615520D01*
X118406786Y-159605698D01*
X118435099Y-159590062D01*
X118439457Y-159571258D01*
X118419859Y-159551932D01*
X118376303Y-159534730D01*
X118354593Y-159529532D01*
X118284467Y-159514410D01*
X118234551Y-159501934D01*
X118200033Y-159490387D01*
X118176098Y-159478053D01*
X118157936Y-159463218D01*
X118152337Y-159457425D01*
X118126407Y-159413509D01*
X118122862Y-159366210D01*
X118139996Y-159320198D01*
X118176104Y-159280141D01*
X118227601Y-159251407D01*
X118278179Y-159240142D01*
X118338634Y-159238113D01*
X118400632Y-159244386D01*
G37*
X118400632Y-159244386D02*
X118455840Y-159258028D01*
X118495922Y-159278107D01*
X118500489Y-159281961D01*
X118509083Y-159303001D01*
X118504268Y-159328982D01*
X118490296Y-159350658D01*
X118471419Y-159358784D01*
X118465812Y-159357362D01*
X118415036Y-159341203D01*
X118360246Y-159332510D01*
X118307734Y-159331212D01*
X118263790Y-159337235D01*
X118234704Y-159350507D01*
X118227596Y-159360104D01*
X118225073Y-159376955D01*
X118234520Y-159390282D01*
X118259387Y-159401783D01*
X118303120Y-159413152D01*
X118357231Y-159423894D01*
X118433536Y-159441949D01*
X118487294Y-159464676D01*
X118521223Y-159494158D01*
X118538045Y-159532478D01*
X118541100Y-159564728D01*
X118529745Y-159615487D01*
X118498029Y-159656412D01*
X118449475Y-159686315D01*
X118387607Y-159704004D01*
X118315947Y-159708289D01*
X118238019Y-159697982D01*
X118188425Y-159683852D01*
X118150170Y-159669782D01*
X118122498Y-159658020D01*
X118113690Y-159652924D01*
X118112751Y-159637125D01*
X118120877Y-159609004D01*
X118122234Y-159605634D01*
X118131168Y-159585529D01*
X118141020Y-159575070D01*
X118157453Y-159573986D01*
X118186129Y-159582007D01*
X118232712Y-159598863D01*
X118236300Y-159600186D01*
X118310662Y-159615855D01*
X118354522Y-159615520D01*
X118406786Y-159605698D01*
X118435099Y-159590062D01*
X118439457Y-159571258D01*
X118419859Y-159551932D01*
X118376303Y-159534730D01*
X118354593Y-159529532D01*
X118284467Y-159514410D01*
X118234551Y-159501934D01*
X118200033Y-159490387D01*
X118176098Y-159478053D01*
X118157936Y-159463218D01*
X118152337Y-159457425D01*
X118126407Y-159413509D01*
X118122862Y-159366210D01*
X118139996Y-159320198D01*
X118176104Y-159280141D01*
X118227601Y-159251407D01*
X118278179Y-159240142D01*
X118338634Y-159238113D01*
X118400632Y-159244386D01*
G36*
X117210260Y-159256458D02*
G01*
X117263969Y-159289144D01*
X117281667Y-159307923D01*
X117292735Y-159323957D01*
X117300377Y-159342230D01*
X117305218Y-159367537D01*
X117307884Y-159404675D01*
X117309001Y-159458440D01*
X117309200Y-159519012D01*
X117309200Y-159695100D01*
X117258400Y-159695100D01*
X117225216Y-159693002D01*
X117210537Y-159684441D01*
X117207600Y-159669319D01*
X117206428Y-159653311D01*
X117198873Y-159651680D01*
X117178879Y-159664802D01*
X117169535Y-159671681D01*
X117123244Y-159694024D01*
X117058225Y-159705114D01*
X117055474Y-159705321D01*
X117012093Y-159707472D01*
X116984204Y-159703939D01*
X116962026Y-159691546D01*
X116935775Y-159667115D01*
X116934789Y-159666129D01*
X116905543Y-159632043D01*
X116892460Y-159600556D01*
X116890100Y-159571764D01*
X116893730Y-159554688D01*
X116993668Y-159554688D01*
X116999133Y-159588354D01*
X117024725Y-159609379D01*
X117067574Y-159615900D01*
X117085850Y-159614447D01*
X117127983Y-159603725D01*
X117165066Y-159585989D01*
X117168400Y-159583649D01*
X117193180Y-159555884D01*
X117205268Y-159525569D01*
X117206058Y-159505397D01*
X117197957Y-159495600D01*
X117174768Y-159492604D01*
X117148118Y-159492616D01*
X117080418Y-159498505D01*
X117030383Y-159513688D01*
X117000657Y-159537104D01*
X116993668Y-159554688D01*
X116893730Y-159554688D01*
X116901569Y-159517825D01*
X116935378Y-159474750D01*
X116990630Y-159443148D01*
X117066427Y-159423630D01*
X117116183Y-159418289D01*
X117163879Y-159414585D01*
X117191287Y-159409955D01*
X117203505Y-159402538D01*
X117205629Y-159390475D01*
X117205083Y-159385836D01*
X117191827Y-159360933D01*
X117167128Y-159340309D01*
X117137136Y-159330639D01*
X117095911Y-159330668D01*
X117039406Y-159340783D01*
X116971899Y-159358898D01*
X116949367Y-159358480D01*
X116932747Y-159337849D01*
X116930463Y-159333045D01*
X116921032Y-159306525D01*
X116924816Y-159288529D01*
X116945593Y-159274106D01*
X116987143Y-159258303D01*
X116987627Y-159258138D01*
X117067157Y-159240120D01*
X117143012Y-159239838D01*
X117210260Y-159256458D01*
G37*
X117210260Y-159256458D02*
X117263969Y-159289144D01*
X117281667Y-159307923D01*
X117292735Y-159323957D01*
X117300377Y-159342230D01*
X117305218Y-159367537D01*
X117307884Y-159404675D01*
X117309001Y-159458440D01*
X117309200Y-159519012D01*
X117309200Y-159695100D01*
X117258400Y-159695100D01*
X117225216Y-159693002D01*
X117210537Y-159684441D01*
X117207600Y-159669319D01*
X117206428Y-159653311D01*
X117198873Y-159651680D01*
X117178879Y-159664802D01*
X117169535Y-159671681D01*
X117123244Y-159694024D01*
X117058225Y-159705114D01*
X117055474Y-159705321D01*
X117012093Y-159707472D01*
X116984204Y-159703939D01*
X116962026Y-159691546D01*
X116935775Y-159667115D01*
X116934789Y-159666129D01*
X116905543Y-159632043D01*
X116892460Y-159600556D01*
X116890100Y-159571764D01*
X116893730Y-159554688D01*
X116993668Y-159554688D01*
X116999133Y-159588354D01*
X117024725Y-159609379D01*
X117067574Y-159615900D01*
X117085850Y-159614447D01*
X117127983Y-159603725D01*
X117165066Y-159585989D01*
X117168400Y-159583649D01*
X117193180Y-159555884D01*
X117205268Y-159525569D01*
X117206058Y-159505397D01*
X117197957Y-159495600D01*
X117174768Y-159492604D01*
X117148118Y-159492616D01*
X117080418Y-159498505D01*
X117030383Y-159513688D01*
X117000657Y-159537104D01*
X116993668Y-159554688D01*
X116893730Y-159554688D01*
X116901569Y-159517825D01*
X116935378Y-159474750D01*
X116990630Y-159443148D01*
X117066427Y-159423630D01*
X117116183Y-159418289D01*
X117163879Y-159414585D01*
X117191287Y-159409955D01*
X117203505Y-159402538D01*
X117205629Y-159390475D01*
X117205083Y-159385836D01*
X117191827Y-159360933D01*
X117167128Y-159340309D01*
X117137136Y-159330639D01*
X117095911Y-159330668D01*
X117039406Y-159340783D01*
X116971899Y-159358898D01*
X116949367Y-159358480D01*
X116932747Y-159337849D01*
X116930463Y-159333045D01*
X116921032Y-159306525D01*
X116924816Y-159288529D01*
X116945593Y-159274106D01*
X116987143Y-159258303D01*
X116987627Y-159258138D01*
X117067157Y-159240120D01*
X117143012Y-159239838D01*
X117210260Y-159256458D01*
G36*
X115971766Y-159249125D02*
G01*
X116036474Y-159281026D01*
X116085862Y-159330946D01*
X116117285Y-159396222D01*
X116128100Y-159472850D01*
X116116996Y-159550946D01*
X116085342Y-159615890D01*
X116035619Y-159665231D01*
X115970311Y-159696521D01*
X115891901Y-159707311D01*
X115890382Y-159707302D01*
X115844577Y-159703339D01*
X115802640Y-159694004D01*
X115791550Y-159689872D01*
X115734427Y-159651464D01*
X115692316Y-159596767D01*
X115667086Y-159531225D01*
X115661549Y-159470613D01*
X115763689Y-159470613D01*
X115770887Y-159521333D01*
X115793418Y-159565316D01*
X115829178Y-159597772D01*
X115876060Y-159613913D01*
X115911517Y-159613383D01*
X115951518Y-159599561D01*
X115987147Y-159575119D01*
X115987717Y-159574555D01*
X116007668Y-159549695D01*
X116017404Y-159520658D01*
X116020137Y-159477372D01*
X116020150Y-159472850D01*
X116017996Y-159428557D01*
X116009183Y-159399009D01*
X115990186Y-159373742D01*
X115984936Y-159368363D01*
X115954595Y-159344450D01*
X115920047Y-159334461D01*
X115891761Y-159333150D01*
X115850653Y-159336400D01*
X115822923Y-159349203D01*
X115803716Y-159368125D01*
X115773930Y-159417947D01*
X115763689Y-159470613D01*
X115661549Y-159470613D01*
X115660605Y-159460283D01*
X115674742Y-159389388D01*
X115682203Y-159371250D01*
X115722955Y-159306733D01*
X115776394Y-159263869D01*
X115844061Y-159241689D01*
X115894384Y-159237900D01*
X115971766Y-159249125D01*
G37*
X115971766Y-159249125D02*
X116036474Y-159281026D01*
X116085862Y-159330946D01*
X116117285Y-159396222D01*
X116128100Y-159472850D01*
X116116996Y-159550946D01*
X116085342Y-159615890D01*
X116035619Y-159665231D01*
X115970311Y-159696521D01*
X115891901Y-159707311D01*
X115890382Y-159707302D01*
X115844577Y-159703339D01*
X115802640Y-159694004D01*
X115791550Y-159689872D01*
X115734427Y-159651464D01*
X115692316Y-159596767D01*
X115667086Y-159531225D01*
X115661549Y-159470613D01*
X115763689Y-159470613D01*
X115770887Y-159521333D01*
X115793418Y-159565316D01*
X115829178Y-159597772D01*
X115876060Y-159613913D01*
X115911517Y-159613383D01*
X115951518Y-159599561D01*
X115987147Y-159575119D01*
X115987717Y-159574555D01*
X116007668Y-159549695D01*
X116017404Y-159520658D01*
X116020137Y-159477372D01*
X116020150Y-159472850D01*
X116017996Y-159428557D01*
X116009183Y-159399009D01*
X115990186Y-159373742D01*
X115984936Y-159368363D01*
X115954595Y-159344450D01*
X115920047Y-159334461D01*
X115891761Y-159333150D01*
X115850653Y-159336400D01*
X115822923Y-159349203D01*
X115803716Y-159368125D01*
X115773930Y-159417947D01*
X115763689Y-159470613D01*
X115661549Y-159470613D01*
X115660605Y-159460283D01*
X115674742Y-159389388D01*
X115682203Y-159371250D01*
X115722955Y-159306733D01*
X115776394Y-159263869D01*
X115844061Y-159241689D01*
X115894384Y-159237900D01*
X115971766Y-159249125D01*
G36*
X115480400Y-159311409D02*
G01*
X115480207Y-159395945D01*
X115479354Y-159459353D01*
X115477427Y-159505900D01*
X115474013Y-159539855D01*
X115468700Y-159565488D01*
X115461073Y-159587068D01*
X115451825Y-159606684D01*
X115414747Y-159659147D01*
X115378800Y-159685555D01*
X115326340Y-159701642D01*
X115264265Y-159706377D01*
X115205952Y-159699199D01*
X115188306Y-159693532D01*
X115139112Y-159663215D01*
X115095891Y-159617614D01*
X115079143Y-159590955D01*
X115064437Y-159557641D01*
X115065977Y-159537654D01*
X115085821Y-159523253D01*
X115098633Y-159517617D01*
X115135503Y-159508790D01*
X115157582Y-159517789D01*
X115162900Y-159535970D01*
X115173231Y-159557685D01*
X115198688Y-159582819D01*
X115230963Y-159604987D01*
X115261750Y-159617804D01*
X115270785Y-159618900D01*
X115304376Y-159616521D01*
X115330288Y-159607494D01*
X115349489Y-159588978D01*
X115362946Y-159558134D01*
X115371628Y-159512122D01*
X115376503Y-159448104D01*
X115378539Y-159363238D01*
X115378800Y-159302030D01*
X115378800Y-159072800D01*
X115480400Y-159072800D01*
X115480400Y-159311409D01*
G37*
X115480400Y-159311409D02*
X115480207Y-159395945D01*
X115479354Y-159459353D01*
X115477427Y-159505900D01*
X115474013Y-159539855D01*
X115468700Y-159565488D01*
X115461073Y-159587068D01*
X115451825Y-159606684D01*
X115414747Y-159659147D01*
X115378800Y-159685555D01*
X115326340Y-159701642D01*
X115264265Y-159706377D01*
X115205952Y-159699199D01*
X115188306Y-159693532D01*
X115139112Y-159663215D01*
X115095891Y-159617614D01*
X115079143Y-159590955D01*
X115064437Y-159557641D01*
X115065977Y-159537654D01*
X115085821Y-159523253D01*
X115098633Y-159517617D01*
X115135503Y-159508790D01*
X115157582Y-159517789D01*
X115162900Y-159535970D01*
X115173231Y-159557685D01*
X115198688Y-159582819D01*
X115230963Y-159604987D01*
X115261750Y-159617804D01*
X115270785Y-159618900D01*
X115304376Y-159616521D01*
X115330288Y-159607494D01*
X115349489Y-159588978D01*
X115362946Y-159558134D01*
X115371628Y-159512122D01*
X115376503Y-159448104D01*
X115378539Y-159363238D01*
X115378800Y-159302030D01*
X115378800Y-159072800D01*
X115480400Y-159072800D01*
X115480400Y-159311409D01*
G36*
X126882474Y-159245453D02*
G01*
X126911030Y-159257276D01*
X126936696Y-159267208D01*
X126948357Y-159264762D01*
X126948500Y-159263626D01*
X126959765Y-159255469D01*
X126987910Y-159250932D01*
X126999300Y-159250600D01*
X127050100Y-159250600D01*
X127050100Y-159502721D01*
X127049965Y-159589193D01*
X127049309Y-159654155D01*
X127047751Y-159701497D01*
X127044912Y-159735109D01*
X127040412Y-159758879D01*
X127033872Y-159776699D01*
X127024910Y-159792457D01*
X127021271Y-159797996D01*
X126975865Y-159844194D01*
X126915238Y-159873830D01*
X126844389Y-159885713D01*
X126768316Y-159878656D01*
X126729304Y-159867447D01*
X126683678Y-159847420D01*
X126653552Y-159826476D01*
X126643700Y-159809251D01*
X126650936Y-159793145D01*
X126665955Y-159772029D01*
X126688210Y-159744546D01*
X126750270Y-159771998D01*
X126811509Y-159790625D01*
X126865737Y-159791271D01*
X126909169Y-159775328D01*
X126938018Y-159744187D01*
X126948499Y-159699238D01*
X126948500Y-159699155D01*
X126948500Y-159656347D01*
X126911030Y-159675723D01*
X126850461Y-159694532D01*
X126790993Y-159690756D01*
X126736141Y-159667099D01*
X126689420Y-159626262D01*
X126654344Y-159570946D01*
X126634428Y-159503853D01*
X126631306Y-159461944D01*
X126733295Y-159461944D01*
X126739837Y-159513003D01*
X126762551Y-159558341D01*
X126797497Y-159589108D01*
X126835645Y-159600009D01*
X126881196Y-159598768D01*
X126920959Y-159586299D01*
X126930583Y-159579859D01*
X126940135Y-159559334D01*
X126946310Y-159521682D01*
X126949036Y-159474854D01*
X126948245Y-159426803D01*
X126943867Y-159385480D01*
X126935831Y-159358838D01*
X126932553Y-159354776D01*
X126891884Y-159335364D01*
X126842672Y-159331601D01*
X126807954Y-159339850D01*
X126767628Y-159368826D01*
X126742650Y-159411704D01*
X126733295Y-159461944D01*
X126631306Y-159461944D01*
X126631208Y-159460634D01*
X126641573Y-159390522D01*
X126669635Y-159330408D01*
X126711576Y-159283069D01*
X126763576Y-159251279D01*
X126821815Y-159237816D01*
X126882474Y-159245453D01*
G37*
X126882474Y-159245453D02*
X126911030Y-159257276D01*
X126936696Y-159267208D01*
X126948357Y-159264762D01*
X126948500Y-159263626D01*
X126959765Y-159255469D01*
X126987910Y-159250932D01*
X126999300Y-159250600D01*
X127050100Y-159250600D01*
X127050100Y-159502721D01*
X127049965Y-159589193D01*
X127049309Y-159654155D01*
X127047751Y-159701497D01*
X127044912Y-159735109D01*
X127040412Y-159758879D01*
X127033872Y-159776699D01*
X127024910Y-159792457D01*
X127021271Y-159797996D01*
X126975865Y-159844194D01*
X126915238Y-159873830D01*
X126844389Y-159885713D01*
X126768316Y-159878656D01*
X126729304Y-159867447D01*
X126683678Y-159847420D01*
X126653552Y-159826476D01*
X126643700Y-159809251D01*
X126650936Y-159793145D01*
X126665955Y-159772029D01*
X126688210Y-159744546D01*
X126750270Y-159771998D01*
X126811509Y-159790625D01*
X126865737Y-159791271D01*
X126909169Y-159775328D01*
X126938018Y-159744187D01*
X126948499Y-159699238D01*
X126948500Y-159699155D01*
X126948500Y-159656347D01*
X126911030Y-159675723D01*
X126850461Y-159694532D01*
X126790993Y-159690756D01*
X126736141Y-159667099D01*
X126689420Y-159626262D01*
X126654344Y-159570946D01*
X126634428Y-159503853D01*
X126631306Y-159461944D01*
X126733295Y-159461944D01*
X126739837Y-159513003D01*
X126762551Y-159558341D01*
X126797497Y-159589108D01*
X126835645Y-159600009D01*
X126881196Y-159598768D01*
X126920959Y-159586299D01*
X126930583Y-159579859D01*
X126940135Y-159559334D01*
X126946310Y-159521682D01*
X126949036Y-159474854D01*
X126948245Y-159426803D01*
X126943867Y-159385480D01*
X126935831Y-159358838D01*
X126932553Y-159354776D01*
X126891884Y-159335364D01*
X126842672Y-159331601D01*
X126807954Y-159339850D01*
X126767628Y-159368826D01*
X126742650Y-159411704D01*
X126733295Y-159461944D01*
X126631306Y-159461944D01*
X126631208Y-159460634D01*
X126641573Y-159390522D01*
X126669635Y-159330408D01*
X126711576Y-159283069D01*
X126763576Y-159251279D01*
X126821815Y-159237816D01*
X126882474Y-159245453D01*
G36*
X122005674Y-159245453D02*
G01*
X122034230Y-159257276D01*
X122059896Y-159267208D01*
X122071557Y-159264762D01*
X122071700Y-159263626D01*
X122082965Y-159255469D01*
X122111110Y-159250932D01*
X122122500Y-159250600D01*
X122173300Y-159250600D01*
X122173300Y-159502721D01*
X122173165Y-159589193D01*
X122172509Y-159654155D01*
X122170951Y-159701497D01*
X122168112Y-159735109D01*
X122163612Y-159758879D01*
X122157072Y-159776699D01*
X122148110Y-159792457D01*
X122144471Y-159797996D01*
X122099065Y-159844194D01*
X122038438Y-159873830D01*
X121967589Y-159885713D01*
X121891516Y-159878656D01*
X121852504Y-159867447D01*
X121806878Y-159847420D01*
X121776752Y-159826476D01*
X121766900Y-159809251D01*
X121774136Y-159793145D01*
X121789155Y-159772029D01*
X121811410Y-159744546D01*
X121873470Y-159771998D01*
X121934709Y-159790625D01*
X121988937Y-159791271D01*
X122032369Y-159775328D01*
X122061218Y-159744187D01*
X122071699Y-159699238D01*
X122071700Y-159699155D01*
X122071700Y-159656347D01*
X122034230Y-159675723D01*
X121973661Y-159694532D01*
X121914193Y-159690756D01*
X121859341Y-159667099D01*
X121812620Y-159626262D01*
X121777544Y-159570946D01*
X121757628Y-159503853D01*
X121754506Y-159461944D01*
X121856495Y-159461944D01*
X121863037Y-159513003D01*
X121885751Y-159558341D01*
X121920697Y-159589108D01*
X121958845Y-159600009D01*
X122004396Y-159598768D01*
X122044159Y-159586299D01*
X122053783Y-159579859D01*
X122063335Y-159559334D01*
X122069510Y-159521682D01*
X122072236Y-159474854D01*
X122071445Y-159426803D01*
X122067067Y-159385480D01*
X122059031Y-159358838D01*
X122055753Y-159354776D01*
X122015084Y-159335364D01*
X121965872Y-159331601D01*
X121931154Y-159339850D01*
X121890828Y-159368826D01*
X121865850Y-159411704D01*
X121856495Y-159461944D01*
X121754506Y-159461944D01*
X121754408Y-159460634D01*
X121764773Y-159390522D01*
X121792835Y-159330408D01*
X121834776Y-159283069D01*
X121886776Y-159251279D01*
X121945015Y-159237816D01*
X122005674Y-159245453D01*
G37*
X122005674Y-159245453D02*
X122034230Y-159257276D01*
X122059896Y-159267208D01*
X122071557Y-159264762D01*
X122071700Y-159263626D01*
X122082965Y-159255469D01*
X122111110Y-159250932D01*
X122122500Y-159250600D01*
X122173300Y-159250600D01*
X122173300Y-159502721D01*
X122173165Y-159589193D01*
X122172509Y-159654155D01*
X122170951Y-159701497D01*
X122168112Y-159735109D01*
X122163612Y-159758879D01*
X122157072Y-159776699D01*
X122148110Y-159792457D01*
X122144471Y-159797996D01*
X122099065Y-159844194D01*
X122038438Y-159873830D01*
X121967589Y-159885713D01*
X121891516Y-159878656D01*
X121852504Y-159867447D01*
X121806878Y-159847420D01*
X121776752Y-159826476D01*
X121766900Y-159809251D01*
X121774136Y-159793145D01*
X121789155Y-159772029D01*
X121811410Y-159744546D01*
X121873470Y-159771998D01*
X121934709Y-159790625D01*
X121988937Y-159791271D01*
X122032369Y-159775328D01*
X122061218Y-159744187D01*
X122071699Y-159699238D01*
X122071700Y-159699155D01*
X122071700Y-159656347D01*
X122034230Y-159675723D01*
X121973661Y-159694532D01*
X121914193Y-159690756D01*
X121859341Y-159667099D01*
X121812620Y-159626262D01*
X121777544Y-159570946D01*
X121757628Y-159503853D01*
X121754506Y-159461944D01*
X121856495Y-159461944D01*
X121863037Y-159513003D01*
X121885751Y-159558341D01*
X121920697Y-159589108D01*
X121958845Y-159600009D01*
X122004396Y-159598768D01*
X122044159Y-159586299D01*
X122053783Y-159579859D01*
X122063335Y-159559334D01*
X122069510Y-159521682D01*
X122072236Y-159474854D01*
X122071445Y-159426803D01*
X122067067Y-159385480D01*
X122059031Y-159358838D01*
X122055753Y-159354776D01*
X122015084Y-159335364D01*
X121965872Y-159331601D01*
X121931154Y-159339850D01*
X121890828Y-159368826D01*
X121865850Y-159411704D01*
X121856495Y-159461944D01*
X121754506Y-159461944D01*
X121754408Y-159460634D01*
X121764773Y-159390522D01*
X121792835Y-159330408D01*
X121834776Y-159283069D01*
X121886776Y-159251279D01*
X121945015Y-159237816D01*
X122005674Y-159245453D01*
G36*
X127835286Y-160791293D02*
G01*
X127858647Y-160832187D01*
X127860396Y-160876811D01*
X127840639Y-160917299D01*
X127833506Y-160924786D01*
X127804112Y-160952400D01*
X114618643Y-160952400D01*
X114592321Y-160918937D01*
X114573769Y-160887072D01*
X114566000Y-160857272D01*
X114566000Y-160857150D01*
X114573694Y-160827404D01*
X114592207Y-160795507D01*
X114592321Y-160795362D01*
X114618643Y-160761900D01*
X121213157Y-160761899D01*
X127807672Y-160761899D01*
X127835286Y-160791293D01*
G37*
X127835286Y-160791293D02*
X127858647Y-160832187D01*
X127860396Y-160876811D01*
X127840639Y-160917299D01*
X127833506Y-160924786D01*
X127804112Y-160952400D01*
X114618643Y-160952400D01*
X114592321Y-160918937D01*
X114573769Y-160887072D01*
X114566000Y-160857272D01*
X114566000Y-160857150D01*
X114573694Y-160827404D01*
X114592207Y-160795507D01*
X114592321Y-160795362D01*
X114618643Y-160761900D01*
X121213157Y-160761899D01*
X127807672Y-160761899D01*
X127835286Y-160791293D01*
G36*
X112144043Y-160764392D02*
G01*
X112192101Y-160773191D01*
X112222105Y-160790281D01*
X112237542Y-160817645D01*
X112241900Y-160857150D01*
X112237607Y-160896532D01*
X112222399Y-160923780D01*
X112192781Y-160940862D01*
X112145257Y-160949745D01*
X112076332Y-160952395D01*
X112072663Y-160952400D01*
X112015908Y-160951825D01*
X111978492Y-160949290D01*
X111954365Y-160943576D01*
X111937476Y-160933466D01*
X111926613Y-160923006D01*
X111903252Y-160882112D01*
X111901503Y-160837488D01*
X111921260Y-160797000D01*
X111928393Y-160789513D01*
X111945574Y-160776180D01*
X111966619Y-160767937D01*
X111997738Y-160763612D01*
X112045141Y-160762030D01*
X112074443Y-160761900D01*
X112144043Y-160764392D01*
G37*
X112144043Y-160764392D02*
X112192101Y-160773191D01*
X112222105Y-160790281D01*
X112237542Y-160817645D01*
X112241900Y-160857150D01*
X112237607Y-160896532D01*
X112222399Y-160923780D01*
X112192781Y-160940862D01*
X112145257Y-160949745D01*
X112076332Y-160952395D01*
X112072663Y-160952400D01*
X112015908Y-160951825D01*
X111978492Y-160949290D01*
X111954365Y-160943576D01*
X111937476Y-160933466D01*
X111926613Y-160923006D01*
X111903252Y-160882112D01*
X111901503Y-160837488D01*
X111921260Y-160797000D01*
X111928393Y-160789513D01*
X111945574Y-160776180D01*
X111966619Y-160767937D01*
X111997738Y-160763612D01*
X112045141Y-160762030D01*
X112074443Y-160761900D01*
X112144043Y-160764392D01*
G36*
X112604557Y-160513054D02*
G01*
X112637368Y-160532157D01*
X112646941Y-160540516D01*
X112654270Y-160550303D01*
X112659707Y-160564826D01*
X112663605Y-160587391D01*
X112666317Y-160621307D01*
X112668194Y-160669882D01*
X112669589Y-160736423D01*
X112670854Y-160824238D01*
X112671188Y-160849571D01*
X112675026Y-161142728D01*
X112643190Y-161174564D01*
X112603435Y-161201023D01*
X112563527Y-161202725D01*
X112526040Y-161179617D01*
X112523513Y-161177006D01*
X112514675Y-161166635D01*
X112507956Y-161154549D01*
X112503065Y-161137371D01*
X112499714Y-161111724D01*
X112497611Y-161074232D01*
X112496468Y-161021520D01*
X112495994Y-160950210D01*
X112495900Y-160856927D01*
X112495900Y-160855370D01*
X112495965Y-160761929D01*
X112496367Y-160690539D01*
X112497413Y-160637846D01*
X112499412Y-160600503D01*
X112502670Y-160575156D01*
X112507497Y-160558457D01*
X112514200Y-160547055D01*
X112523086Y-160537598D01*
X112525293Y-160535513D01*
X112564470Y-160511609D01*
X112604557Y-160513054D01*
G37*
X112604557Y-160513054D02*
X112637368Y-160532157D01*
X112646941Y-160540516D01*
X112654270Y-160550303D01*
X112659707Y-160564826D01*
X112663605Y-160587391D01*
X112666317Y-160621307D01*
X112668194Y-160669882D01*
X112669589Y-160736423D01*
X112670854Y-160824238D01*
X112671188Y-160849571D01*
X112675026Y-161142728D01*
X112643190Y-161174564D01*
X112603435Y-161201023D01*
X112563527Y-161202725D01*
X112526040Y-161179617D01*
X112523513Y-161177006D01*
X112514675Y-161166635D01*
X112507956Y-161154549D01*
X112503065Y-161137371D01*
X112499714Y-161111724D01*
X112497611Y-161074232D01*
X112496468Y-161021520D01*
X112495994Y-160950210D01*
X112495900Y-160856927D01*
X112495900Y-160855370D01*
X112495965Y-160761929D01*
X112496367Y-160690539D01*
X112497413Y-160637846D01*
X112499412Y-160600503D01*
X112502670Y-160575156D01*
X112507497Y-160558457D01*
X112514200Y-160547055D01*
X112523086Y-160537598D01*
X112525293Y-160535513D01*
X112564470Y-160511609D01*
X112604557Y-160513054D01*
G36*
X114330360Y-160184148D02*
G01*
X114337400Y-160190400D01*
X114343118Y-160196819D01*
X114347907Y-160205090D01*
X114351849Y-160217365D01*
X114355026Y-160235795D01*
X114357522Y-160262532D01*
X114359417Y-160299728D01*
X114360795Y-160349533D01*
X114361737Y-160414100D01*
X114362326Y-160495579D01*
X114362645Y-160596124D01*
X114362775Y-160717884D01*
X114362800Y-160854324D01*
X114362722Y-161000224D01*
X114362446Y-161122823D01*
X114361912Y-161224218D01*
X114361055Y-161306508D01*
X114359815Y-161371791D01*
X114358129Y-161422165D01*
X114355934Y-161459728D01*
X114353169Y-161486578D01*
X114349771Y-161504814D01*
X114345678Y-161516533D01*
X114343029Y-161521074D01*
X114313262Y-161543781D01*
X114273733Y-161549686D01*
X114233757Y-161538757D01*
X114210894Y-161521505D01*
X114205058Y-161514613D01*
X114200171Y-161506105D01*
X114196150Y-161493817D01*
X114192910Y-161475586D01*
X114190367Y-161449248D01*
X114188437Y-161412641D01*
X114187035Y-161363601D01*
X114186077Y-161299964D01*
X114185479Y-161219567D01*
X114185156Y-161120246D01*
X114185025Y-160999839D01*
X114185000Y-160857150D01*
X114185025Y-160713643D01*
X114185158Y-160593374D01*
X114185482Y-160494178D01*
X114186082Y-160413891D01*
X114187043Y-160350352D01*
X114188447Y-160301395D01*
X114190381Y-160264858D01*
X114192928Y-160238577D01*
X114196172Y-160220390D01*
X114200199Y-160208132D01*
X114205091Y-160199641D01*
X114210894Y-160192794D01*
X114247738Y-160169943D01*
X114290793Y-160167000D01*
X114330360Y-160184148D01*
G37*
X114330360Y-160184148D02*
X114337400Y-160190400D01*
X114343118Y-160196819D01*
X114347907Y-160205090D01*
X114351849Y-160217365D01*
X114355026Y-160235795D01*
X114357522Y-160262532D01*
X114359417Y-160299728D01*
X114360795Y-160349533D01*
X114361737Y-160414100D01*
X114362326Y-160495579D01*
X114362645Y-160596124D01*
X114362775Y-160717884D01*
X114362800Y-160854324D01*
X114362722Y-161000224D01*
X114362446Y-161122823D01*
X114361912Y-161224218D01*
X114361055Y-161306508D01*
X114359815Y-161371791D01*
X114358129Y-161422165D01*
X114355934Y-161459728D01*
X114353169Y-161486578D01*
X114349771Y-161504814D01*
X114345678Y-161516533D01*
X114343029Y-161521074D01*
X114313262Y-161543781D01*
X114273733Y-161549686D01*
X114233757Y-161538757D01*
X114210894Y-161521505D01*
X114205058Y-161514613D01*
X114200171Y-161506105D01*
X114196150Y-161493817D01*
X114192910Y-161475586D01*
X114190367Y-161449248D01*
X114188437Y-161412641D01*
X114187035Y-161363601D01*
X114186077Y-161299964D01*
X114185479Y-161219567D01*
X114185156Y-161120246D01*
X114185025Y-160999839D01*
X114185000Y-160857150D01*
X114185025Y-160713643D01*
X114185158Y-160593374D01*
X114185482Y-160494178D01*
X114186082Y-160413891D01*
X114187043Y-160350352D01*
X114188447Y-160301395D01*
X114190381Y-160264858D01*
X114192928Y-160238577D01*
X114196172Y-160220390D01*
X114200199Y-160208132D01*
X114205091Y-160199641D01*
X114210894Y-160192794D01*
X114247738Y-160169943D01*
X114290793Y-160167000D01*
X114330360Y-160184148D01*
G36*
X113314153Y-160173366D02*
G01*
X113316323Y-160174719D01*
X113325899Y-160182268D01*
X113333948Y-160192460D01*
X113340603Y-160207408D01*
X113345994Y-160229227D01*
X113350255Y-160260029D01*
X113353517Y-160301931D01*
X113355911Y-160357044D01*
X113357571Y-160427484D01*
X113358628Y-160515364D01*
X113359213Y-160622799D01*
X113359458Y-160751902D01*
X113359500Y-160866620D01*
X113359473Y-161008969D01*
X113359337Y-161128100D01*
X113359005Y-161226193D01*
X113358390Y-161305429D01*
X113357406Y-161367989D01*
X113355968Y-161416055D01*
X113353988Y-161451807D01*
X113351381Y-161477427D01*
X113348060Y-161495095D01*
X113343939Y-161506993D01*
X113338933Y-161515301D01*
X113333605Y-161521505D01*
X113298709Y-161544001D01*
X113257871Y-161549644D01*
X113220403Y-161538462D01*
X113201470Y-161521074D01*
X113196956Y-161512113D01*
X113193172Y-161497824D01*
X113190056Y-161476107D01*
X113187546Y-161444866D01*
X113185580Y-161402001D01*
X113184094Y-161345415D01*
X113183028Y-161273009D01*
X113182319Y-161182686D01*
X113181905Y-161072347D01*
X113181723Y-160939893D01*
X113181700Y-160854324D01*
X113181727Y-160710547D01*
X113181866Y-160590018D01*
X113182197Y-160490586D01*
X113182804Y-160410100D01*
X113183768Y-160346407D01*
X113185173Y-160297357D01*
X113187099Y-160260797D01*
X113189630Y-160234577D01*
X113192848Y-160216544D01*
X113196835Y-160204547D01*
X113201673Y-160196434D01*
X113207100Y-160190400D01*
X113239677Y-160171493D01*
X113279644Y-160165200D01*
X113314153Y-160173366D01*
G37*
X113314153Y-160173366D02*
X113316323Y-160174719D01*
X113325899Y-160182268D01*
X113333948Y-160192460D01*
X113340603Y-160207408D01*
X113345994Y-160229227D01*
X113350255Y-160260029D01*
X113353517Y-160301931D01*
X113355911Y-160357044D01*
X113357571Y-160427484D01*
X113358628Y-160515364D01*
X113359213Y-160622799D01*
X113359458Y-160751902D01*
X113359500Y-160866620D01*
X113359473Y-161008969D01*
X113359337Y-161128100D01*
X113359005Y-161226193D01*
X113358390Y-161305429D01*
X113357406Y-161367989D01*
X113355968Y-161416055D01*
X113353988Y-161451807D01*
X113351381Y-161477427D01*
X113348060Y-161495095D01*
X113343939Y-161506993D01*
X113338933Y-161515301D01*
X113333605Y-161521505D01*
X113298709Y-161544001D01*
X113257871Y-161549644D01*
X113220403Y-161538462D01*
X113201470Y-161521074D01*
X113196956Y-161512113D01*
X113193172Y-161497824D01*
X113190056Y-161476107D01*
X113187546Y-161444866D01*
X113185580Y-161402001D01*
X113184094Y-161345415D01*
X113183028Y-161273009D01*
X113182319Y-161182686D01*
X113181905Y-161072347D01*
X113181723Y-160939893D01*
X113181700Y-160854324D01*
X113181727Y-160710547D01*
X113181866Y-160590018D01*
X113182197Y-160490586D01*
X113182804Y-160410100D01*
X113183768Y-160346407D01*
X113185173Y-160297357D01*
X113187099Y-160260797D01*
X113189630Y-160234577D01*
X113192848Y-160216544D01*
X113196835Y-160204547D01*
X113201673Y-160196434D01*
X113207100Y-160190400D01*
X113239677Y-160171493D01*
X113279644Y-160165200D01*
X113314153Y-160173366D01*
G36*
X114000053Y-159828088D02*
G01*
X114021879Y-159846790D01*
X114026201Y-159853072D01*
X114029958Y-159861651D01*
X114033188Y-159874239D01*
X114035931Y-159892549D01*
X114038227Y-159918294D01*
X114040115Y-159953187D01*
X114041635Y-159998939D01*
X114042826Y-160057264D01*
X114043729Y-160129875D01*
X114044382Y-160218483D01*
X114044826Y-160324802D01*
X114045099Y-160450544D01*
X114045242Y-160597422D01*
X114045295Y-160767149D01*
X114045300Y-160859134D01*
X114045300Y-161842554D01*
X114014127Y-161873727D01*
X113976174Y-161899826D01*
X113938933Y-161900608D01*
X113901063Y-161876073D01*
X113898672Y-161873727D01*
X113867500Y-161842554D01*
X113867500Y-160859134D01*
X113867522Y-160677591D01*
X113867616Y-160519736D01*
X113867821Y-160383856D01*
X113868176Y-160268238D01*
X113868722Y-160171169D01*
X113869497Y-160090937D01*
X113870542Y-160025829D01*
X113871896Y-159974133D01*
X113873599Y-159934135D01*
X113875690Y-159904124D01*
X113878209Y-159882386D01*
X113881195Y-159867209D01*
X113884689Y-159856880D01*
X113888730Y-159849687D01*
X113890920Y-159846790D01*
X113925484Y-159822461D01*
X113956400Y-159817866D01*
X114000053Y-159828088D01*
G37*
X114000053Y-159828088D02*
X114021879Y-159846790D01*
X114026201Y-159853072D01*
X114029958Y-159861651D01*
X114033188Y-159874239D01*
X114035931Y-159892549D01*
X114038227Y-159918294D01*
X114040115Y-159953187D01*
X114041635Y-159998939D01*
X114042826Y-160057264D01*
X114043729Y-160129875D01*
X114044382Y-160218483D01*
X114044826Y-160324802D01*
X114045099Y-160450544D01*
X114045242Y-160597422D01*
X114045295Y-160767149D01*
X114045300Y-160859134D01*
X114045300Y-161842554D01*
X114014127Y-161873727D01*
X113976174Y-161899826D01*
X113938933Y-161900608D01*
X113901063Y-161876073D01*
X113898672Y-161873727D01*
X113867500Y-161842554D01*
X113867500Y-160859134D01*
X113867522Y-160677591D01*
X113867616Y-160519736D01*
X113867821Y-160383856D01*
X113868176Y-160268238D01*
X113868722Y-160171169D01*
X113869497Y-160090937D01*
X113870542Y-160025829D01*
X113871896Y-159974133D01*
X113873599Y-159934135D01*
X113875690Y-159904124D01*
X113878209Y-159882386D01*
X113881195Y-159867209D01*
X113884689Y-159856880D01*
X113888730Y-159849687D01*
X113890920Y-159846790D01*
X113925484Y-159822461D01*
X113956400Y-159817866D01*
X114000053Y-159828088D01*
G36*
X112956284Y-159823835D02*
G01*
X112989603Y-159843551D01*
X113008462Y-159875566D01*
X113009709Y-159892673D01*
X113010900Y-159933154D01*
X113012017Y-159994985D01*
X113013044Y-160076140D01*
X113013966Y-160174594D01*
X113014765Y-160288322D01*
X113015427Y-160415299D01*
X113015934Y-160553499D01*
X113016271Y-160700897D01*
X113016421Y-160855468D01*
X113016426Y-160873602D01*
X113016600Y-161842554D01*
X112985427Y-161873727D01*
X112948935Y-161899588D01*
X112912686Y-161901150D01*
X112872291Y-161878601D01*
X112872262Y-161878578D01*
X112838800Y-161852256D01*
X112838800Y-160868093D01*
X112838958Y-160658810D01*
X112839437Y-160474594D01*
X112840240Y-160315112D01*
X112841372Y-160180033D01*
X112842838Y-160069025D01*
X112844641Y-159981755D01*
X112846787Y-159917893D01*
X112849279Y-159877107D01*
X112852122Y-159859064D01*
X112852272Y-159858757D01*
X112879644Y-159830579D01*
X112916973Y-159819224D01*
X112956284Y-159823835D01*
G37*
X112956284Y-159823835D02*
X112989603Y-159843551D01*
X113008462Y-159875566D01*
X113009709Y-159892673D01*
X113010900Y-159933154D01*
X113012017Y-159994985D01*
X113013044Y-160076140D01*
X113013966Y-160174594D01*
X113014765Y-160288322D01*
X113015427Y-160415299D01*
X113015934Y-160553499D01*
X113016271Y-160700897D01*
X113016421Y-160855468D01*
X113016426Y-160873602D01*
X113016600Y-161842554D01*
X112985427Y-161873727D01*
X112948935Y-161899588D01*
X112912686Y-161901150D01*
X112872291Y-161878601D01*
X112872262Y-161878578D01*
X112838800Y-161852256D01*
X112838800Y-160868093D01*
X112838958Y-160658810D01*
X112839437Y-160474594D01*
X112840240Y-160315112D01*
X112841372Y-160180033D01*
X112842838Y-160069025D01*
X112844641Y-159981755D01*
X112846787Y-159917893D01*
X112849279Y-159877107D01*
X112852122Y-159859064D01*
X112852272Y-159858757D01*
X112879644Y-159830579D01*
X112916973Y-159819224D01*
X112956284Y-159823835D01*
G36*
X113670832Y-159493784D02*
G01*
X113676078Y-159499962D01*
X113680287Y-159505588D01*
X113684022Y-159512115D01*
X113687310Y-159521013D01*
X113690181Y-159533751D01*
X113692663Y-159551799D01*
X113694783Y-159576627D01*
X113696571Y-159609703D01*
X113698054Y-159652497D01*
X113699262Y-159706478D01*
X113700222Y-159773117D01*
X113700963Y-159853882D01*
X113701514Y-159950243D01*
X113701902Y-160063669D01*
X113702156Y-160195630D01*
X113702304Y-160347596D01*
X113702375Y-160521035D01*
X113702398Y-160717417D01*
X113702400Y-160862998D01*
X113702400Y-162192572D01*
X113673006Y-162220186D01*
X113632942Y-162243429D01*
X113590671Y-162244227D01*
X113552999Y-162222590D01*
X113550494Y-162220005D01*
X113546361Y-162215243D01*
X113542693Y-162209375D01*
X113539463Y-162200941D01*
X113536641Y-162188481D01*
X113534202Y-162170535D01*
X113532116Y-162145641D01*
X113530357Y-162112341D01*
X113528896Y-162069174D01*
X113527705Y-162014680D01*
X113526758Y-161947399D01*
X113526026Y-161865870D01*
X113525482Y-161768633D01*
X113525097Y-161654228D01*
X113524844Y-161521196D01*
X113524696Y-161368075D01*
X113524624Y-161193405D01*
X113524601Y-160995727D01*
X113524600Y-160856969D01*
X113524599Y-159521727D01*
X113553993Y-159494113D01*
X113594057Y-159470230D01*
X113634619Y-159470198D01*
X113670832Y-159493784D01*
G37*
X113670832Y-159493784D02*
X113676078Y-159499962D01*
X113680287Y-159505588D01*
X113684022Y-159512115D01*
X113687310Y-159521013D01*
X113690181Y-159533751D01*
X113692663Y-159551799D01*
X113694783Y-159576627D01*
X113696571Y-159609703D01*
X113698054Y-159652497D01*
X113699262Y-159706478D01*
X113700222Y-159773117D01*
X113700963Y-159853882D01*
X113701514Y-159950243D01*
X113701902Y-160063669D01*
X113702156Y-160195630D01*
X113702304Y-160347596D01*
X113702375Y-160521035D01*
X113702398Y-160717417D01*
X113702400Y-160862998D01*
X113702400Y-162192572D01*
X113673006Y-162220186D01*
X113632942Y-162243429D01*
X113590671Y-162244227D01*
X113552999Y-162222590D01*
X113550494Y-162220005D01*
X113546361Y-162215243D01*
X113542693Y-162209375D01*
X113539463Y-162200941D01*
X113536641Y-162188481D01*
X113534202Y-162170535D01*
X113532116Y-162145641D01*
X113530357Y-162112341D01*
X113528896Y-162069174D01*
X113527705Y-162014680D01*
X113526758Y-161947399D01*
X113526026Y-161865870D01*
X113525482Y-161768633D01*
X113525097Y-161654228D01*
X113524844Y-161521196D01*
X113524696Y-161368075D01*
X113524624Y-161193405D01*
X113524601Y-160995727D01*
X113524600Y-160856969D01*
X113524599Y-159521727D01*
X113553993Y-159494113D01*
X113594057Y-159470230D01*
X113634619Y-159470198D01*
X113670832Y-159493784D01*
D10*
X121360000Y-44760000D02*
X118500000Y-44760000D01*
X118500000Y-44760000D02*
X118500000Y-46680000D01*
X118500000Y-46680000D02*
X121360000Y-46680000D01*
D14*
X119598095Y-75952380D02*
X119598095Y-74952380D01*
X119598095Y-75428571D02*
X120169523Y-75428571D01*
X120169523Y-75952380D02*
X120169523Y-74952380D01*
X121121904Y-74952380D02*
X120645714Y-74952380D01*
X120598095Y-75428571D01*
X120645714Y-75380952D01*
X120740952Y-75333333D01*
X120979047Y-75333333D01*
X121074285Y-75380952D01*
X121121904Y-75428571D01*
X121169523Y-75523809D01*
X121169523Y-75761904D01*
X121121904Y-75857142D01*
X121074285Y-75904761D01*
X120979047Y-75952380D01*
X120740952Y-75952380D01*
X120645714Y-75904761D01*
X120598095Y-75857142D01*
%LPC*%
D15*
X131000000Y-145000000D03*
G36*
G01*
X118709000Y-46198828D02*
X118709000Y-45241172D01*
G75*
G02*
X118981172Y-44969000I272172J0D01*
G01*
X119688828Y-44969000D01*
G75*
G02*
X119961000Y-45241172I0J-272172D01*
G01*
X119961000Y-46198828D01*
G75*
G02*
X119688828Y-46471000I-272172J0D01*
G01*
X118981172Y-46471000D01*
G75*
G02*
X118709000Y-46198828I0J272172D01*
G01*
G37*
G36*
G01*
X120759000Y-46198828D02*
X120759000Y-45241172D01*
G75*
G02*
X121031172Y-44969000I272172J0D01*
G01*
X121738828Y-44969000D01*
G75*
G02*
X122011000Y-45241172I0J-272172D01*
G01*
X122011000Y-46198828D01*
G75*
G02*
X121738828Y-46471000I-272172J0D01*
G01*
X121031172Y-46471000D01*
G75*
G02*
X120759000Y-46198828I0J272172D01*
G01*
G37*
D16*
X133500000Y-39000000D03*
X106500000Y-39000000D03*
X106500000Y-161000000D03*
X133500000Y-161000000D03*
D17*
X120360000Y-75000000D03*
D18*
X110000000Y-115000000D03*
X110000000Y-125000000D03*
X110000000Y-145000000D03*
M02*
