G04 #@! TF.GenerationSoftware,KiCad,Pcbnew,(5.1.9)-1*
G04 #@! TF.CreationDate,2021-04-11T23:26:30+02:00*
G04 #@! TF.ProjectId,KicadJE_VU_Meter,4b696361-644a-4455-9f56-555f4d657465,rev?*
G04 #@! TF.SameCoordinates,Original*
G04 #@! TF.FileFunction,Soldermask,Bot*
G04 #@! TF.FilePolarity,Negative*
%FSLAX46Y46*%
G04 Gerber Fmt 4.6, Leading zero omitted, Abs format (unit mm)*
G04 Created by KiCad (PCBNEW (5.1.9)-1) date 2021-04-11 23:26:30*
%MOMM*%
%LPD*%
G01*
G04 APERTURE LIST*
%ADD10C,10.102000*%
%ADD11O,7.102000X4.102000*%
%ADD12C,2.102000*%
%ADD13C,35.102000*%
%ADD14C,6.602000*%
G04 APERTURE END LIST*
G36*
G01*
X134349000Y-118500500D02*
X134349000Y-117499500D01*
G75*
G02*
X134624500Y-117224000I275500J0D01*
G01*
X135175500Y-117224000D01*
G75*
G02*
X135451000Y-117499500I0J-275500D01*
G01*
X135451000Y-118500500D01*
G75*
G02*
X135175500Y-118776000I-275500J0D01*
G01*
X134624500Y-118776000D01*
G75*
G02*
X134349000Y-118500500I0J275500D01*
G01*
G37*
G36*
G01*
X132449000Y-118500500D02*
X132449000Y-117499500D01*
G75*
G02*
X132724500Y-117224000I275500J0D01*
G01*
X133275500Y-117224000D01*
G75*
G02*
X133551000Y-117499500I0J-275500D01*
G01*
X133551000Y-118500500D01*
G75*
G02*
X133275500Y-118776000I-275500J0D01*
G01*
X132724500Y-118776000D01*
G75*
G02*
X132449000Y-118500500I0J275500D01*
G01*
G37*
D10*
X131000000Y-145000000D03*
G36*
G01*
X129849000Y-52650000D02*
X129849000Y-51450000D01*
G75*
G02*
X129900000Y-51399000I51000J0D01*
G01*
X130800000Y-51399000D01*
G75*
G02*
X130851000Y-51450000I0J-51000D01*
G01*
X130851000Y-52650000D01*
G75*
G02*
X130800000Y-52701000I-51000J0D01*
G01*
X129900000Y-52701000D01*
G75*
G02*
X129849000Y-52650000I0J51000D01*
G01*
G37*
G36*
G01*
X133149000Y-52650000D02*
X133149000Y-51450000D01*
G75*
G02*
X133200000Y-51399000I51000J0D01*
G01*
X134100000Y-51399000D01*
G75*
G02*
X134151000Y-51450000I0J-51000D01*
G01*
X134151000Y-52650000D01*
G75*
G02*
X134100000Y-52701000I-51000J0D01*
G01*
X133200000Y-52701000D01*
G75*
G02*
X133149000Y-52650000I0J51000D01*
G01*
G37*
G36*
G01*
X109149000Y-50600000D02*
X109149000Y-49400000D01*
G75*
G02*
X109200000Y-49349000I51000J0D01*
G01*
X110100000Y-49349000D01*
G75*
G02*
X110151000Y-49400000I0J-51000D01*
G01*
X110151000Y-50600000D01*
G75*
G02*
X110100000Y-50651000I-51000J0D01*
G01*
X109200000Y-50651000D01*
G75*
G02*
X109149000Y-50600000I0J51000D01*
G01*
G37*
G36*
G01*
X105849000Y-50600000D02*
X105849000Y-49400000D01*
G75*
G02*
X105900000Y-49349000I51000J0D01*
G01*
X106800000Y-49349000D01*
G75*
G02*
X106851000Y-49400000I0J-51000D01*
G01*
X106851000Y-50600000D01*
G75*
G02*
X106800000Y-50651000I-51000J0D01*
G01*
X105900000Y-50651000D01*
G75*
G02*
X105849000Y-50600000I0J51000D01*
G01*
G37*
G36*
G01*
X117100000Y-129651000D02*
X115900000Y-129651000D01*
G75*
G02*
X115849000Y-129600000I0J51000D01*
G01*
X115849000Y-128700000D01*
G75*
G02*
X115900000Y-128649000I51000J0D01*
G01*
X117100000Y-128649000D01*
G75*
G02*
X117151000Y-128700000I0J-51000D01*
G01*
X117151000Y-129600000D01*
G75*
G02*
X117100000Y-129651000I-51000J0D01*
G01*
G37*
G36*
G01*
X117100000Y-126351000D02*
X115900000Y-126351000D01*
G75*
G02*
X115849000Y-126300000I0J51000D01*
G01*
X115849000Y-125400000D01*
G75*
G02*
X115900000Y-125349000I51000J0D01*
G01*
X117100000Y-125349000D01*
G75*
G02*
X117151000Y-125400000I0J-51000D01*
G01*
X117151000Y-126300000D01*
G75*
G02*
X117100000Y-126351000I-51000J0D01*
G01*
G37*
G36*
G01*
X115900000Y-118649000D02*
X117100000Y-118649000D01*
G75*
G02*
X117151000Y-118700000I0J-51000D01*
G01*
X117151000Y-119600000D01*
G75*
G02*
X117100000Y-119651000I-51000J0D01*
G01*
X115900000Y-119651000D01*
G75*
G02*
X115849000Y-119600000I0J51000D01*
G01*
X115849000Y-118700000D01*
G75*
G02*
X115900000Y-118649000I51000J0D01*
G01*
G37*
G36*
G01*
X115900000Y-115349000D02*
X117100000Y-115349000D01*
G75*
G02*
X117151000Y-115400000I0J-51000D01*
G01*
X117151000Y-116300000D01*
G75*
G02*
X117100000Y-116351000I-51000J0D01*
G01*
X115900000Y-116351000D01*
G75*
G02*
X115849000Y-116300000I0J51000D01*
G01*
X115849000Y-115400000D01*
G75*
G02*
X115900000Y-115349000I51000J0D01*
G01*
G37*
G36*
G01*
X115900000Y-110349000D02*
X117100000Y-110349000D01*
G75*
G02*
X117151000Y-110400000I0J-51000D01*
G01*
X117151000Y-111300000D01*
G75*
G02*
X117100000Y-111351000I-51000J0D01*
G01*
X115900000Y-111351000D01*
G75*
G02*
X115849000Y-111300000I0J51000D01*
G01*
X115849000Y-110400000D01*
G75*
G02*
X115900000Y-110349000I51000J0D01*
G01*
G37*
G36*
G01*
X115900000Y-113649000D02*
X117100000Y-113649000D01*
G75*
G02*
X117151000Y-113700000I0J-51000D01*
G01*
X117151000Y-114600000D01*
G75*
G02*
X117100000Y-114651000I-51000J0D01*
G01*
X115900000Y-114651000D01*
G75*
G02*
X115849000Y-114600000I0J51000D01*
G01*
X115849000Y-113700000D01*
G75*
G02*
X115900000Y-113649000I51000J0D01*
G01*
G37*
G36*
G01*
X117100000Y-121351000D02*
X115900000Y-121351000D01*
G75*
G02*
X115849000Y-121300000I0J51000D01*
G01*
X115849000Y-120400000D01*
G75*
G02*
X115900000Y-120349000I51000J0D01*
G01*
X117100000Y-120349000D01*
G75*
G02*
X117151000Y-120400000I0J-51000D01*
G01*
X117151000Y-121300000D01*
G75*
G02*
X117100000Y-121351000I-51000J0D01*
G01*
G37*
G36*
G01*
X117100000Y-124651000D02*
X115900000Y-124651000D01*
G75*
G02*
X115849000Y-124600000I0J51000D01*
G01*
X115849000Y-123700000D01*
G75*
G02*
X115900000Y-123649000I51000J0D01*
G01*
X117100000Y-123649000D01*
G75*
G02*
X117151000Y-123700000I0J-51000D01*
G01*
X117151000Y-124600000D01*
G75*
G02*
X117100000Y-124651000I-51000J0D01*
G01*
G37*
G36*
G01*
X110500000Y-155961000D02*
X109500000Y-155961000D01*
G75*
G02*
X109449000Y-155910000I0J51000D01*
G01*
X109449000Y-153400000D01*
G75*
G02*
X109500000Y-153349000I51000J0D01*
G01*
X110500000Y-153349000D01*
G75*
G02*
X110551000Y-153400000I0J-51000D01*
G01*
X110551000Y-155910000D01*
G75*
G02*
X110500000Y-155961000I-51000J0D01*
G01*
G37*
G36*
G01*
X113040000Y-152651000D02*
X112040000Y-152651000D01*
G75*
G02*
X111989000Y-152600000I0J51000D01*
G01*
X111989000Y-150090000D01*
G75*
G02*
X112040000Y-150039000I51000J0D01*
G01*
X113040000Y-150039000D01*
G75*
G02*
X113091000Y-150090000I0J-51000D01*
G01*
X113091000Y-152600000D01*
G75*
G02*
X113040000Y-152651000I-51000J0D01*
G01*
G37*
G36*
G01*
X107960000Y-152651000D02*
X106960000Y-152651000D01*
G75*
G02*
X106909000Y-152600000I0J51000D01*
G01*
X106909000Y-150090000D01*
G75*
G02*
X106960000Y-150039000I51000J0D01*
G01*
X107960000Y-150039000D01*
G75*
G02*
X108011000Y-150090000I0J-51000D01*
G01*
X108011000Y-152600000D01*
G75*
G02*
X107960000Y-152651000I-51000J0D01*
G01*
G37*
G36*
G01*
X107960000Y-105651000D02*
X106960000Y-105651000D01*
G75*
G02*
X106909000Y-105600000I0J51000D01*
G01*
X106909000Y-103090000D01*
G75*
G02*
X106960000Y-103039000I51000J0D01*
G01*
X107960000Y-103039000D01*
G75*
G02*
X108011000Y-103090000I0J-51000D01*
G01*
X108011000Y-105600000D01*
G75*
G02*
X107960000Y-105651000I-51000J0D01*
G01*
G37*
G36*
G01*
X113040000Y-105651000D02*
X112040000Y-105651000D01*
G75*
G02*
X111989000Y-105600000I0J51000D01*
G01*
X111989000Y-103090000D01*
G75*
G02*
X112040000Y-103039000I51000J0D01*
G01*
X113040000Y-103039000D01*
G75*
G02*
X113091000Y-103090000I0J-51000D01*
G01*
X113091000Y-105600000D01*
G75*
G02*
X113040000Y-105651000I-51000J0D01*
G01*
G37*
G36*
G01*
X110500000Y-108961000D02*
X109500000Y-108961000D01*
G75*
G02*
X109449000Y-108910000I0J51000D01*
G01*
X109449000Y-106400000D01*
G75*
G02*
X109500000Y-106349000I51000J0D01*
G01*
X110500000Y-106349000D01*
G75*
G02*
X110551000Y-106400000I0J-51000D01*
G01*
X110551000Y-108910000D01*
G75*
G02*
X110500000Y-108961000I-51000J0D01*
G01*
G37*
G36*
G01*
X107960000Y-133651000D02*
X106960000Y-133651000D01*
G75*
G02*
X106909000Y-133600000I0J51000D01*
G01*
X106909000Y-131090000D01*
G75*
G02*
X106960000Y-131039000I51000J0D01*
G01*
X107960000Y-131039000D01*
G75*
G02*
X108011000Y-131090000I0J-51000D01*
G01*
X108011000Y-133600000D01*
G75*
G02*
X107960000Y-133651000I-51000J0D01*
G01*
G37*
G36*
G01*
X113040000Y-133651000D02*
X112040000Y-133651000D01*
G75*
G02*
X111989000Y-133600000I0J51000D01*
G01*
X111989000Y-131090000D01*
G75*
G02*
X112040000Y-131039000I51000J0D01*
G01*
X113040000Y-131039000D01*
G75*
G02*
X113091000Y-131090000I0J-51000D01*
G01*
X113091000Y-133600000D01*
G75*
G02*
X113040000Y-133651000I-51000J0D01*
G01*
G37*
G36*
G01*
X110500000Y-136961000D02*
X109500000Y-136961000D01*
G75*
G02*
X109449000Y-136910000I0J51000D01*
G01*
X109449000Y-134400000D01*
G75*
G02*
X109500000Y-134349000I51000J0D01*
G01*
X110500000Y-134349000D01*
G75*
G02*
X110551000Y-134400000I0J-51000D01*
G01*
X110551000Y-136910000D01*
G75*
G02*
X110500000Y-136961000I-51000J0D01*
G01*
G37*
G36*
G01*
X136961000Y-97770000D02*
X136961000Y-98770000D01*
G75*
G02*
X136910000Y-98821000I-51000J0D01*
G01*
X134400000Y-98821000D01*
G75*
G02*
X134349000Y-98770000I0J51000D01*
G01*
X134349000Y-97770000D01*
G75*
G02*
X134400000Y-97719000I51000J0D01*
G01*
X136910000Y-97719000D01*
G75*
G02*
X136961000Y-97770000I0J-51000D01*
G01*
G37*
G36*
G01*
X133651000Y-95230000D02*
X133651000Y-96230000D01*
G75*
G02*
X133600000Y-96281000I-51000J0D01*
G01*
X131090000Y-96281000D01*
G75*
G02*
X131039000Y-96230000I0J51000D01*
G01*
X131039000Y-95230000D01*
G75*
G02*
X131090000Y-95179000I51000J0D01*
G01*
X133600000Y-95179000D01*
G75*
G02*
X133651000Y-95230000I0J-51000D01*
G01*
G37*
D11*
X133500000Y-39000000D03*
X106500000Y-39000000D03*
X106500000Y-161000000D03*
X133500000Y-161000000D03*
G36*
G01*
X126499000Y-112580500D02*
X126499000Y-112229500D01*
G75*
G02*
X126674500Y-112054000I175500J0D01*
G01*
X128325500Y-112054000D01*
G75*
G02*
X128501000Y-112229500I0J-175500D01*
G01*
X128501000Y-112580500D01*
G75*
G02*
X128325500Y-112756000I-175500J0D01*
G01*
X126674500Y-112756000D01*
G75*
G02*
X126499000Y-112580500I0J175500D01*
G01*
G37*
G36*
G01*
X126499000Y-111310500D02*
X126499000Y-110959500D01*
G75*
G02*
X126674500Y-110784000I175500J0D01*
G01*
X128325500Y-110784000D01*
G75*
G02*
X128501000Y-110959500I0J-175500D01*
G01*
X128501000Y-111310500D01*
G75*
G02*
X128325500Y-111486000I-175500J0D01*
G01*
X126674500Y-111486000D01*
G75*
G02*
X126499000Y-111310500I0J175500D01*
G01*
G37*
G36*
G01*
X126499000Y-110040500D02*
X126499000Y-109689500D01*
G75*
G02*
X126674500Y-109514000I175500J0D01*
G01*
X128325500Y-109514000D01*
G75*
G02*
X128501000Y-109689500I0J-175500D01*
G01*
X128501000Y-110040500D01*
G75*
G02*
X128325500Y-110216000I-175500J0D01*
G01*
X126674500Y-110216000D01*
G75*
G02*
X126499000Y-110040500I0J175500D01*
G01*
G37*
G36*
G01*
X126499000Y-108770500D02*
X126499000Y-108419500D01*
G75*
G02*
X126674500Y-108244000I175500J0D01*
G01*
X128325500Y-108244000D01*
G75*
G02*
X128501000Y-108419500I0J-175500D01*
G01*
X128501000Y-108770500D01*
G75*
G02*
X128325500Y-108946000I-175500J0D01*
G01*
X126674500Y-108946000D01*
G75*
G02*
X126499000Y-108770500I0J175500D01*
G01*
G37*
G36*
G01*
X133499000Y-108770500D02*
X133499000Y-108419500D01*
G75*
G02*
X133674500Y-108244000I175500J0D01*
G01*
X135325500Y-108244000D01*
G75*
G02*
X135501000Y-108419500I0J-175500D01*
G01*
X135501000Y-108770500D01*
G75*
G02*
X135325500Y-108946000I-175500J0D01*
G01*
X133674500Y-108946000D01*
G75*
G02*
X133499000Y-108770500I0J175500D01*
G01*
G37*
G36*
G01*
X133499000Y-110040500D02*
X133499000Y-109689500D01*
G75*
G02*
X133674500Y-109514000I175500J0D01*
G01*
X135325500Y-109514000D01*
G75*
G02*
X135501000Y-109689500I0J-175500D01*
G01*
X135501000Y-110040500D01*
G75*
G02*
X135325500Y-110216000I-175500J0D01*
G01*
X133674500Y-110216000D01*
G75*
G02*
X133499000Y-110040500I0J175500D01*
G01*
G37*
G36*
G01*
X133499000Y-111310500D02*
X133499000Y-110959500D01*
G75*
G02*
X133674500Y-110784000I175500J0D01*
G01*
X135325500Y-110784000D01*
G75*
G02*
X135501000Y-110959500I0J-175500D01*
G01*
X135501000Y-111310500D01*
G75*
G02*
X135325500Y-111486000I-175500J0D01*
G01*
X133674500Y-111486000D01*
G75*
G02*
X133499000Y-111310500I0J175500D01*
G01*
G37*
G36*
G01*
X133499000Y-112580500D02*
X133499000Y-112229500D01*
G75*
G02*
X133674500Y-112054000I175500J0D01*
G01*
X135325500Y-112054000D01*
G75*
G02*
X135501000Y-112229500I0J-175500D01*
G01*
X135501000Y-112580500D01*
G75*
G02*
X135325500Y-112756000I-175500J0D01*
G01*
X133674500Y-112756000D01*
G75*
G02*
X133499000Y-112580500I0J175500D01*
G01*
G37*
G36*
G01*
X115420000Y-46074000D02*
X116420000Y-46074000D01*
G75*
G02*
X116471000Y-46125000I0J-51000D01*
G01*
X116471000Y-49275000D01*
G75*
G02*
X116420000Y-49326000I-51000J0D01*
G01*
X115420000Y-49326000D01*
G75*
G02*
X115369000Y-49275000I0J51000D01*
G01*
X115369000Y-46125000D01*
G75*
G02*
X115420000Y-46074000I51000J0D01*
G01*
G37*
G36*
G01*
X115420000Y-51124000D02*
X116420000Y-51124000D01*
G75*
G02*
X116471000Y-51175000I0J-51000D01*
G01*
X116471000Y-54325000D01*
G75*
G02*
X116420000Y-54376000I-51000J0D01*
G01*
X115420000Y-54376000D01*
G75*
G02*
X115369000Y-54325000I0J51000D01*
G01*
X115369000Y-51175000D01*
G75*
G02*
X115420000Y-51124000I51000J0D01*
G01*
G37*
G36*
G01*
X117960000Y-46074000D02*
X118960000Y-46074000D01*
G75*
G02*
X119011000Y-46125000I0J-51000D01*
G01*
X119011000Y-49275000D01*
G75*
G02*
X118960000Y-49326000I-51000J0D01*
G01*
X117960000Y-49326000D01*
G75*
G02*
X117909000Y-49275000I0J51000D01*
G01*
X117909000Y-46125000D01*
G75*
G02*
X117960000Y-46074000I51000J0D01*
G01*
G37*
G36*
G01*
X117960000Y-51124000D02*
X118960000Y-51124000D01*
G75*
G02*
X119011000Y-51175000I0J-51000D01*
G01*
X119011000Y-54325000D01*
G75*
G02*
X118960000Y-54376000I-51000J0D01*
G01*
X117960000Y-54376000D01*
G75*
G02*
X117909000Y-54325000I0J51000D01*
G01*
X117909000Y-51175000D01*
G75*
G02*
X117960000Y-51124000I51000J0D01*
G01*
G37*
G36*
G01*
X120500000Y-46074000D02*
X121500000Y-46074000D01*
G75*
G02*
X121551000Y-46125000I0J-51000D01*
G01*
X121551000Y-49275000D01*
G75*
G02*
X121500000Y-49326000I-51000J0D01*
G01*
X120500000Y-49326000D01*
G75*
G02*
X120449000Y-49275000I0J51000D01*
G01*
X120449000Y-46125000D01*
G75*
G02*
X120500000Y-46074000I51000J0D01*
G01*
G37*
G36*
G01*
X120500000Y-51124000D02*
X121500000Y-51124000D01*
G75*
G02*
X121551000Y-51175000I0J-51000D01*
G01*
X121551000Y-54325000D01*
G75*
G02*
X121500000Y-54376000I-51000J0D01*
G01*
X120500000Y-54376000D01*
G75*
G02*
X120449000Y-54325000I0J51000D01*
G01*
X120449000Y-51175000D01*
G75*
G02*
X120500000Y-51124000I51000J0D01*
G01*
G37*
G36*
G01*
X123040000Y-46074000D02*
X124040000Y-46074000D01*
G75*
G02*
X124091000Y-46125000I0J-51000D01*
G01*
X124091000Y-49275000D01*
G75*
G02*
X124040000Y-49326000I-51000J0D01*
G01*
X123040000Y-49326000D01*
G75*
G02*
X122989000Y-49275000I0J51000D01*
G01*
X122989000Y-46125000D01*
G75*
G02*
X123040000Y-46074000I51000J0D01*
G01*
G37*
G36*
G01*
X123040000Y-51124000D02*
X124040000Y-51124000D01*
G75*
G02*
X124091000Y-51175000I0J-51000D01*
G01*
X124091000Y-54325000D01*
G75*
G02*
X124040000Y-54376000I-51000J0D01*
G01*
X123040000Y-54376000D01*
G75*
G02*
X122989000Y-54325000I0J51000D01*
G01*
X122989000Y-51175000D01*
G75*
G02*
X123040000Y-51124000I51000J0D01*
G01*
G37*
G36*
G01*
X125580000Y-46074000D02*
X126580000Y-46074000D01*
G75*
G02*
X126631000Y-46125000I0J-51000D01*
G01*
X126631000Y-49275000D01*
G75*
G02*
X126580000Y-49326000I-51000J0D01*
G01*
X125580000Y-49326000D01*
G75*
G02*
X125529000Y-49275000I0J51000D01*
G01*
X125529000Y-46125000D01*
G75*
G02*
X125580000Y-46074000I51000J0D01*
G01*
G37*
G36*
G01*
X125580000Y-51124000D02*
X126580000Y-51124000D01*
G75*
G02*
X126631000Y-51175000I0J-51000D01*
G01*
X126631000Y-54325000D01*
G75*
G02*
X126580000Y-54376000I-51000J0D01*
G01*
X125580000Y-54376000D01*
G75*
G02*
X125529000Y-54325000I0J51000D01*
G01*
X125529000Y-51175000D01*
G75*
G02*
X125580000Y-51124000I51000J0D01*
G01*
G37*
G36*
G01*
X138451000Y-51549500D02*
X138451000Y-52550500D01*
G75*
G02*
X138175500Y-52826000I-275500J0D01*
G01*
X137624500Y-52826000D01*
G75*
G02*
X137349000Y-52550500I0J275500D01*
G01*
X137349000Y-51549500D01*
G75*
G02*
X137624500Y-51274000I275500J0D01*
G01*
X138175500Y-51274000D01*
G75*
G02*
X138451000Y-51549500I0J-275500D01*
G01*
G37*
G36*
G01*
X136551000Y-51549500D02*
X136551000Y-52550500D01*
G75*
G02*
X136275500Y-52826000I-275500J0D01*
G01*
X135724500Y-52826000D01*
G75*
G02*
X135449000Y-52550500I0J275500D01*
G01*
X135449000Y-51549500D01*
G75*
G02*
X135724500Y-51274000I275500J0D01*
G01*
X136275500Y-51274000D01*
G75*
G02*
X136551000Y-51549500I0J-275500D01*
G01*
G37*
G36*
G01*
X104501000Y-49499500D02*
X104501000Y-50500500D01*
G75*
G02*
X104225500Y-50776000I-275500J0D01*
G01*
X103674500Y-50776000D01*
G75*
G02*
X103399000Y-50500500I0J275500D01*
G01*
X103399000Y-49499500D01*
G75*
G02*
X103674500Y-49224000I275500J0D01*
G01*
X104225500Y-49224000D01*
G75*
G02*
X104501000Y-49499500I0J-275500D01*
G01*
G37*
G36*
G01*
X102601000Y-49499500D02*
X102601000Y-50500500D01*
G75*
G02*
X102325500Y-50776000I-275500J0D01*
G01*
X101774500Y-50776000D01*
G75*
G02*
X101499000Y-50500500I0J275500D01*
G01*
X101499000Y-49499500D01*
G75*
G02*
X101774500Y-49224000I275500J0D01*
G01*
X102325500Y-49224000D01*
G75*
G02*
X102601000Y-49499500I0J-275500D01*
G01*
G37*
G36*
G01*
X122999000Y-109000500D02*
X122999000Y-107999500D01*
G75*
G02*
X123274500Y-107724000I275500J0D01*
G01*
X123825500Y-107724000D01*
G75*
G02*
X124101000Y-107999500I0J-275500D01*
G01*
X124101000Y-109000500D01*
G75*
G02*
X123825500Y-109276000I-275500J0D01*
G01*
X123274500Y-109276000D01*
G75*
G02*
X122999000Y-109000500I0J275500D01*
G01*
G37*
G36*
G01*
X124899000Y-109000500D02*
X124899000Y-107999500D01*
G75*
G02*
X125174500Y-107724000I275500J0D01*
G01*
X125725500Y-107724000D01*
G75*
G02*
X126001000Y-107999500I0J-275500D01*
G01*
X126001000Y-109000500D01*
G75*
G02*
X125725500Y-109276000I-275500J0D01*
G01*
X125174500Y-109276000D01*
G75*
G02*
X124899000Y-109000500I0J275500D01*
G01*
G37*
G36*
G01*
X134399000Y-116000500D02*
X134399000Y-114999500D01*
G75*
G02*
X134674500Y-114724000I275500J0D01*
G01*
X135225500Y-114724000D01*
G75*
G02*
X135501000Y-114999500I0J-275500D01*
G01*
X135501000Y-116000500D01*
G75*
G02*
X135225500Y-116276000I-275500J0D01*
G01*
X134674500Y-116276000D01*
G75*
G02*
X134399000Y-116000500I0J275500D01*
G01*
G37*
G36*
G01*
X132499000Y-116000500D02*
X132499000Y-114999500D01*
G75*
G02*
X132774500Y-114724000I275500J0D01*
G01*
X133325500Y-114724000D01*
G75*
G02*
X133601000Y-114999500I0J-275500D01*
G01*
X133601000Y-116000500D01*
G75*
G02*
X133325500Y-116276000I-275500J0D01*
G01*
X132774500Y-116276000D01*
G75*
G02*
X132499000Y-116000500I0J275500D01*
G01*
G37*
G36*
G01*
X129901000Y-119499500D02*
X129901000Y-120500500D01*
G75*
G02*
X129625500Y-120776000I-275500J0D01*
G01*
X129074500Y-120776000D01*
G75*
G02*
X128799000Y-120500500I0J275500D01*
G01*
X128799000Y-119499500D01*
G75*
G02*
X129074500Y-119224000I275500J0D01*
G01*
X129625500Y-119224000D01*
G75*
G02*
X129901000Y-119499500I0J-275500D01*
G01*
G37*
G36*
G01*
X131801000Y-119499500D02*
X131801000Y-120500500D01*
G75*
G02*
X131525500Y-120776000I-275500J0D01*
G01*
X130974500Y-120776000D01*
G75*
G02*
X130699000Y-120500500I0J275500D01*
G01*
X130699000Y-119499500D01*
G75*
G02*
X130974500Y-119224000I275500J0D01*
G01*
X131525500Y-119224000D01*
G75*
G02*
X131801000Y-119499500I0J-275500D01*
G01*
G37*
G36*
G01*
X129678828Y-99101000D02*
X128321172Y-99101000D01*
G75*
G02*
X128049000Y-98828828I0J272172D01*
G01*
X128049000Y-98121172D01*
G75*
G02*
X128321172Y-97849000I272172J0D01*
G01*
X129678828Y-97849000D01*
G75*
G02*
X129951000Y-98121172I0J-272172D01*
G01*
X129951000Y-98828828D01*
G75*
G02*
X129678828Y-99101000I-272172J0D01*
G01*
G37*
G36*
G01*
X129678828Y-96151000D02*
X128321172Y-96151000D01*
G75*
G02*
X128049000Y-95878828I0J272172D01*
G01*
X128049000Y-95171172D01*
G75*
G02*
X128321172Y-94899000I272172J0D01*
G01*
X129678828Y-94899000D01*
G75*
G02*
X129951000Y-95171172I0J-272172D01*
G01*
X129951000Y-95878828D01*
G75*
G02*
X129678828Y-96151000I-272172J0D01*
G01*
G37*
G36*
G01*
X133849000Y-47979752D02*
X133849000Y-47020248D01*
G75*
G02*
X134120248Y-46749000I271248J0D01*
G01*
X134879752Y-46749000D01*
G75*
G02*
X135151000Y-47020248I0J-271248D01*
G01*
X135151000Y-47979752D01*
G75*
G02*
X134879752Y-48251000I-271248J0D01*
G01*
X134120248Y-48251000D01*
G75*
G02*
X133849000Y-47979752I0J271248D01*
G01*
G37*
G36*
G01*
X131849000Y-47979752D02*
X131849000Y-47020248D01*
G75*
G02*
X132120248Y-46749000I271248J0D01*
G01*
X132879752Y-46749000D01*
G75*
G02*
X133151000Y-47020248I0J-271248D01*
G01*
X133151000Y-47979752D01*
G75*
G02*
X132879752Y-48251000I-271248J0D01*
G01*
X132120248Y-48251000D01*
G75*
G02*
X131849000Y-47979752I0J271248D01*
G01*
G37*
G36*
G01*
X103151000Y-150020248D02*
X103151000Y-150979752D01*
G75*
G02*
X102879752Y-151251000I-271248J0D01*
G01*
X102120248Y-151251000D01*
G75*
G02*
X101849000Y-150979752I0J271248D01*
G01*
X101849000Y-150020248D01*
G75*
G02*
X102120248Y-149749000I271248J0D01*
G01*
X102879752Y-149749000D01*
G75*
G02*
X103151000Y-150020248I0J-271248D01*
G01*
G37*
G36*
G01*
X105151000Y-150020248D02*
X105151000Y-150979752D01*
G75*
G02*
X104879752Y-151251000I-271248J0D01*
G01*
X104120248Y-151251000D01*
G75*
G02*
X103849000Y-150979752I0J271248D01*
G01*
X103849000Y-150020248D01*
G75*
G02*
X104120248Y-149749000I271248J0D01*
G01*
X104879752Y-149749000D01*
G75*
G02*
X105151000Y-150020248I0J-271248D01*
G01*
G37*
G36*
G01*
X103849000Y-131979752D02*
X103849000Y-131020248D01*
G75*
G02*
X104120248Y-130749000I271248J0D01*
G01*
X104879752Y-130749000D01*
G75*
G02*
X105151000Y-131020248I0J-271248D01*
G01*
X105151000Y-131979752D01*
G75*
G02*
X104879752Y-132251000I-271248J0D01*
G01*
X104120248Y-132251000D01*
G75*
G02*
X103849000Y-131979752I0J271248D01*
G01*
G37*
G36*
G01*
X101849000Y-131979752D02*
X101849000Y-131020248D01*
G75*
G02*
X102120248Y-130749000I271248J0D01*
G01*
X102879752Y-130749000D01*
G75*
G02*
X103151000Y-131020248I0J-271248D01*
G01*
X103151000Y-131979752D01*
G75*
G02*
X102879752Y-132251000I-271248J0D01*
G01*
X102120248Y-132251000D01*
G75*
G02*
X101849000Y-131979752I0J271248D01*
G01*
G37*
G36*
G01*
X116151000Y-150020248D02*
X116151000Y-150979752D01*
G75*
G02*
X115879752Y-151251000I-271248J0D01*
G01*
X115120248Y-151251000D01*
G75*
G02*
X114849000Y-150979752I0J271248D01*
G01*
X114849000Y-150020248D01*
G75*
G02*
X115120248Y-149749000I271248J0D01*
G01*
X115879752Y-149749000D01*
G75*
G02*
X116151000Y-150020248I0J-271248D01*
G01*
G37*
G36*
G01*
X118151000Y-150020248D02*
X118151000Y-150979752D01*
G75*
G02*
X117879752Y-151251000I-271248J0D01*
G01*
X117120248Y-151251000D01*
G75*
G02*
X116849000Y-150979752I0J271248D01*
G01*
X116849000Y-150020248D01*
G75*
G02*
X117120248Y-149749000I271248J0D01*
G01*
X117879752Y-149749000D01*
G75*
G02*
X118151000Y-150020248I0J-271248D01*
G01*
G37*
G36*
G01*
X116979752Y-109651000D02*
X116020248Y-109651000D01*
G75*
G02*
X115749000Y-109379752I0J271248D01*
G01*
X115749000Y-108620248D01*
G75*
G02*
X116020248Y-108349000I271248J0D01*
G01*
X116979752Y-108349000D01*
G75*
G02*
X117251000Y-108620248I0J-271248D01*
G01*
X117251000Y-109379752D01*
G75*
G02*
X116979752Y-109651000I-271248J0D01*
G01*
G37*
G36*
G01*
X116979752Y-107651000D02*
X116020248Y-107651000D01*
G75*
G02*
X115749000Y-107379752I0J271248D01*
G01*
X115749000Y-106620248D01*
G75*
G02*
X116020248Y-106349000I271248J0D01*
G01*
X116979752Y-106349000D01*
G75*
G02*
X117251000Y-106620248I0J-271248D01*
G01*
X117251000Y-107379752D01*
G75*
G02*
X116979752Y-107651000I-271248J0D01*
G01*
G37*
G36*
G01*
X127901000Y-121770248D02*
X127901000Y-122729752D01*
G75*
G02*
X127629752Y-123001000I-271248J0D01*
G01*
X126870248Y-123001000D01*
G75*
G02*
X126599000Y-122729752I0J271248D01*
G01*
X126599000Y-121770248D01*
G75*
G02*
X126870248Y-121499000I271248J0D01*
G01*
X127629752Y-121499000D01*
G75*
G02*
X127901000Y-121770248I0J-271248D01*
G01*
G37*
G36*
G01*
X125901000Y-121770248D02*
X125901000Y-122729752D01*
G75*
G02*
X125629752Y-123001000I-271248J0D01*
G01*
X124870248Y-123001000D01*
G75*
G02*
X124599000Y-122729752I0J271248D01*
G01*
X124599000Y-121770248D01*
G75*
G02*
X124870248Y-121499000I271248J0D01*
G01*
X125629752Y-121499000D01*
G75*
G02*
X125901000Y-121770248I0J-271248D01*
G01*
G37*
G36*
G01*
X103849000Y-101979752D02*
X103849000Y-101020248D01*
G75*
G02*
X104120248Y-100749000I271248J0D01*
G01*
X104879752Y-100749000D01*
G75*
G02*
X105151000Y-101020248I0J-271248D01*
G01*
X105151000Y-101979752D01*
G75*
G02*
X104879752Y-102251000I-271248J0D01*
G01*
X104120248Y-102251000D01*
G75*
G02*
X103849000Y-101979752I0J271248D01*
G01*
G37*
G36*
G01*
X101849000Y-101979752D02*
X101849000Y-101020248D01*
G75*
G02*
X102120248Y-100749000I271248J0D01*
G01*
X102879752Y-100749000D01*
G75*
G02*
X103151000Y-101020248I0J-271248D01*
G01*
X103151000Y-101979752D01*
G75*
G02*
X102879752Y-102251000I-271248J0D01*
G01*
X102120248Y-102251000D01*
G75*
G02*
X101849000Y-101979752I0J271248D01*
G01*
G37*
G36*
G01*
X116020248Y-130349000D02*
X116979752Y-130349000D01*
G75*
G02*
X117251000Y-130620248I0J-271248D01*
G01*
X117251000Y-131379752D01*
G75*
G02*
X116979752Y-131651000I-271248J0D01*
G01*
X116020248Y-131651000D01*
G75*
G02*
X115749000Y-131379752I0J271248D01*
G01*
X115749000Y-130620248D01*
G75*
G02*
X116020248Y-130349000I271248J0D01*
G01*
G37*
G36*
G01*
X116020248Y-132349000D02*
X116979752Y-132349000D01*
G75*
G02*
X117251000Y-132620248I0J-271248D01*
G01*
X117251000Y-133379752D01*
G75*
G02*
X116979752Y-133651000I-271248J0D01*
G01*
X116020248Y-133651000D01*
G75*
G02*
X115749000Y-133379752I0J271248D01*
G01*
X115749000Y-132620248D01*
G75*
G02*
X116020248Y-132349000I271248J0D01*
G01*
G37*
G36*
G01*
X126599000Y-120479752D02*
X126599000Y-119520248D01*
G75*
G02*
X126870248Y-119249000I271248J0D01*
G01*
X127629752Y-119249000D01*
G75*
G02*
X127901000Y-119520248I0J-271248D01*
G01*
X127901000Y-120479752D01*
G75*
G02*
X127629752Y-120751000I-271248J0D01*
G01*
X126870248Y-120751000D01*
G75*
G02*
X126599000Y-120479752I0J271248D01*
G01*
G37*
G36*
G01*
X124599000Y-120479752D02*
X124599000Y-119520248D01*
G75*
G02*
X124870248Y-119249000I271248J0D01*
G01*
X125629752Y-119249000D01*
G75*
G02*
X125901000Y-119520248I0J-271248D01*
G01*
X125901000Y-120479752D01*
G75*
G02*
X125629752Y-120751000I-271248J0D01*
G01*
X124870248Y-120751000D01*
G75*
G02*
X124599000Y-120479752I0J271248D01*
G01*
G37*
G36*
G01*
X120151000Y-110020248D02*
X120151000Y-110979752D01*
G75*
G02*
X119879752Y-111251000I-271248J0D01*
G01*
X119120248Y-111251000D01*
G75*
G02*
X118849000Y-110979752I0J271248D01*
G01*
X118849000Y-110020248D01*
G75*
G02*
X119120248Y-109749000I271248J0D01*
G01*
X119879752Y-109749000D01*
G75*
G02*
X120151000Y-110020248I0J-271248D01*
G01*
G37*
G36*
G01*
X122151000Y-110020248D02*
X122151000Y-110979752D01*
G75*
G02*
X121879752Y-111251000I-271248J0D01*
G01*
X121120248Y-111251000D01*
G75*
G02*
X120849000Y-110979752I0J271248D01*
G01*
X120849000Y-110020248D01*
G75*
G02*
X121120248Y-109749000I271248J0D01*
G01*
X121879752Y-109749000D01*
G75*
G02*
X122151000Y-110020248I0J-271248D01*
G01*
G37*
G36*
G01*
X122151000Y-112520248D02*
X122151000Y-113479752D01*
G75*
G02*
X121879752Y-113751000I-271248J0D01*
G01*
X121120248Y-113751000D01*
G75*
G02*
X120849000Y-113479752I0J271248D01*
G01*
X120849000Y-112520248D01*
G75*
G02*
X121120248Y-112249000I271248J0D01*
G01*
X121879752Y-112249000D01*
G75*
G02*
X122151000Y-112520248I0J-271248D01*
G01*
G37*
G36*
G01*
X120151000Y-112520248D02*
X120151000Y-113479752D01*
G75*
G02*
X119879752Y-113751000I-271248J0D01*
G01*
X119120248Y-113751000D01*
G75*
G02*
X118849000Y-113479752I0J271248D01*
G01*
X118849000Y-112520248D01*
G75*
G02*
X119120248Y-112249000I271248J0D01*
G01*
X119879752Y-112249000D01*
G75*
G02*
X120151000Y-112520248I0J-271248D01*
G01*
G37*
G36*
G01*
X128599000Y-122729752D02*
X128599000Y-121770248D01*
G75*
G02*
X128870248Y-121499000I271248J0D01*
G01*
X129629752Y-121499000D01*
G75*
G02*
X129901000Y-121770248I0J-271248D01*
G01*
X129901000Y-122729752D01*
G75*
G02*
X129629752Y-123001000I-271248J0D01*
G01*
X128870248Y-123001000D01*
G75*
G02*
X128599000Y-122729752I0J271248D01*
G01*
G37*
G36*
G01*
X130599000Y-122729752D02*
X130599000Y-121770248D01*
G75*
G02*
X130870248Y-121499000I271248J0D01*
G01*
X131629752Y-121499000D01*
G75*
G02*
X131901000Y-121770248I0J-271248D01*
G01*
X131901000Y-122729752D01*
G75*
G02*
X131629752Y-123001000I-271248J0D01*
G01*
X130870248Y-123001000D01*
G75*
G02*
X130599000Y-122729752I0J271248D01*
G01*
G37*
G36*
G01*
X122151000Y-115020248D02*
X122151000Y-115979752D01*
G75*
G02*
X121879752Y-116251000I-271248J0D01*
G01*
X121120248Y-116251000D01*
G75*
G02*
X120849000Y-115979752I0J271248D01*
G01*
X120849000Y-115020248D01*
G75*
G02*
X121120248Y-114749000I271248J0D01*
G01*
X121879752Y-114749000D01*
G75*
G02*
X122151000Y-115020248I0J-271248D01*
G01*
G37*
G36*
G01*
X120151000Y-115020248D02*
X120151000Y-115979752D01*
G75*
G02*
X119879752Y-116251000I-271248J0D01*
G01*
X119120248Y-116251000D01*
G75*
G02*
X118849000Y-115979752I0J271248D01*
G01*
X118849000Y-115020248D01*
G75*
G02*
X119120248Y-114749000I271248J0D01*
G01*
X119879752Y-114749000D01*
G75*
G02*
X120151000Y-115020248I0J-271248D01*
G01*
G37*
G36*
G01*
X135901000Y-121770248D02*
X135901000Y-122729752D01*
G75*
G02*
X135629752Y-123001000I-271248J0D01*
G01*
X134870248Y-123001000D01*
G75*
G02*
X134599000Y-122729752I0J271248D01*
G01*
X134599000Y-121770248D01*
G75*
G02*
X134870248Y-121499000I271248J0D01*
G01*
X135629752Y-121499000D01*
G75*
G02*
X135901000Y-121770248I0J-271248D01*
G01*
G37*
G36*
G01*
X133901000Y-121770248D02*
X133901000Y-122729752D01*
G75*
G02*
X133629752Y-123001000I-271248J0D01*
G01*
X132870248Y-123001000D01*
G75*
G02*
X132599000Y-122729752I0J271248D01*
G01*
X132599000Y-121770248D01*
G75*
G02*
X132870248Y-121499000I271248J0D01*
G01*
X133629752Y-121499000D01*
G75*
G02*
X133901000Y-121770248I0J-271248D01*
G01*
G37*
G36*
G01*
X127651000Y-117020248D02*
X127651000Y-117979752D01*
G75*
G02*
X127379752Y-118251000I-271248J0D01*
G01*
X126620248Y-118251000D01*
G75*
G02*
X126349000Y-117979752I0J271248D01*
G01*
X126349000Y-117020248D01*
G75*
G02*
X126620248Y-116749000I271248J0D01*
G01*
X127379752Y-116749000D01*
G75*
G02*
X127651000Y-117020248I0J-271248D01*
G01*
G37*
G36*
G01*
X129651000Y-117020248D02*
X129651000Y-117979752D01*
G75*
G02*
X129379752Y-118251000I-271248J0D01*
G01*
X128620248Y-118251000D01*
G75*
G02*
X128349000Y-117979752I0J271248D01*
G01*
X128349000Y-117020248D01*
G75*
G02*
X128620248Y-116749000I271248J0D01*
G01*
X129379752Y-116749000D01*
G75*
G02*
X129651000Y-117020248I0J-271248D01*
G01*
G37*
G36*
G01*
X130599000Y-124729752D02*
X130599000Y-123770248D01*
G75*
G02*
X130870248Y-123499000I271248J0D01*
G01*
X131629752Y-123499000D01*
G75*
G02*
X131901000Y-123770248I0J-271248D01*
G01*
X131901000Y-124729752D01*
G75*
G02*
X131629752Y-125001000I-271248J0D01*
G01*
X130870248Y-125001000D01*
G75*
G02*
X130599000Y-124729752I0J271248D01*
G01*
G37*
G36*
G01*
X128599000Y-124729752D02*
X128599000Y-123770248D01*
G75*
G02*
X128870248Y-123499000I271248J0D01*
G01*
X129629752Y-123499000D01*
G75*
G02*
X129901000Y-123770248I0J-271248D01*
G01*
X129901000Y-124729752D01*
G75*
G02*
X129629752Y-125001000I-271248J0D01*
G01*
X128870248Y-125001000D01*
G75*
G02*
X128599000Y-124729752I0J271248D01*
G01*
G37*
G36*
G01*
X125151000Y-98020248D02*
X125151000Y-98979752D01*
G75*
G02*
X124879752Y-99251000I-271248J0D01*
G01*
X124120248Y-99251000D01*
G75*
G02*
X123849000Y-98979752I0J271248D01*
G01*
X123849000Y-98020248D01*
G75*
G02*
X124120248Y-97749000I271248J0D01*
G01*
X124879752Y-97749000D01*
G75*
G02*
X125151000Y-98020248I0J-271248D01*
G01*
G37*
G36*
G01*
X127151000Y-98020248D02*
X127151000Y-98979752D01*
G75*
G02*
X126879752Y-99251000I-271248J0D01*
G01*
X126120248Y-99251000D01*
G75*
G02*
X125849000Y-98979752I0J271248D01*
G01*
X125849000Y-98020248D01*
G75*
G02*
X126120248Y-97749000I271248J0D01*
G01*
X126879752Y-97749000D01*
G75*
G02*
X127151000Y-98020248I0J-271248D01*
G01*
G37*
G36*
G01*
X126349000Y-115979752D02*
X126349000Y-115020248D01*
G75*
G02*
X126620248Y-114749000I271248J0D01*
G01*
X127379752Y-114749000D01*
G75*
G02*
X127651000Y-115020248I0J-271248D01*
G01*
X127651000Y-115979752D01*
G75*
G02*
X127379752Y-116251000I-271248J0D01*
G01*
X126620248Y-116251000D01*
G75*
G02*
X126349000Y-115979752I0J271248D01*
G01*
G37*
G36*
G01*
X128349000Y-115979752D02*
X128349000Y-115020248D01*
G75*
G02*
X128620248Y-114749000I271248J0D01*
G01*
X129379752Y-114749000D01*
G75*
G02*
X129651000Y-115020248I0J-271248D01*
G01*
X129651000Y-115979752D01*
G75*
G02*
X129379752Y-116251000I-271248J0D01*
G01*
X128620248Y-116251000D01*
G75*
G02*
X128349000Y-115979752I0J271248D01*
G01*
G37*
G36*
G01*
X127151000Y-95020248D02*
X127151000Y-95979752D01*
G75*
G02*
X126879752Y-96251000I-271248J0D01*
G01*
X126120248Y-96251000D01*
G75*
G02*
X125849000Y-95979752I0J271248D01*
G01*
X125849000Y-95020248D01*
G75*
G02*
X126120248Y-94749000I271248J0D01*
G01*
X126879752Y-94749000D01*
G75*
G02*
X127151000Y-95020248I0J-271248D01*
G01*
G37*
G36*
G01*
X125151000Y-95020248D02*
X125151000Y-95979752D01*
G75*
G02*
X124879752Y-96251000I-271248J0D01*
G01*
X124120248Y-96251000D01*
G75*
G02*
X123849000Y-95979752I0J271248D01*
G01*
X123849000Y-95020248D01*
G75*
G02*
X124120248Y-94749000I271248J0D01*
G01*
X124879752Y-94749000D01*
G75*
G02*
X125151000Y-95020248I0J-271248D01*
G01*
G37*
G36*
G01*
X124749000Y-113479752D02*
X124749000Y-112520248D01*
G75*
G02*
X125020248Y-112249000I271248J0D01*
G01*
X125779752Y-112249000D01*
G75*
G02*
X126051000Y-112520248I0J-271248D01*
G01*
X126051000Y-113479752D01*
G75*
G02*
X125779752Y-113751000I-271248J0D01*
G01*
X125020248Y-113751000D01*
G75*
G02*
X124749000Y-113479752I0J271248D01*
G01*
G37*
G36*
G01*
X122749000Y-113479752D02*
X122749000Y-112520248D01*
G75*
G02*
X123020248Y-112249000I271248J0D01*
G01*
X123779752Y-112249000D01*
G75*
G02*
X124051000Y-112520248I0J-271248D01*
G01*
X124051000Y-113479752D01*
G75*
G02*
X123779752Y-113751000I-271248J0D01*
G01*
X123020248Y-113751000D01*
G75*
G02*
X122749000Y-113479752I0J271248D01*
G01*
G37*
D12*
X102000000Y-145000000D03*
D13*
X120360000Y-75000000D03*
D12*
X102000000Y-125000000D03*
X121750000Y-150250000D03*
G36*
G01*
X107039000Y-96230000D02*
X107039000Y-95230000D01*
G75*
G02*
X107090000Y-95179000I51000J0D01*
G01*
X109600000Y-95179000D01*
G75*
G02*
X109651000Y-95230000I0J-51000D01*
G01*
X109651000Y-96230000D01*
G75*
G02*
X109600000Y-96281000I-51000J0D01*
G01*
X107090000Y-96281000D01*
G75*
G02*
X107039000Y-96230000I0J51000D01*
G01*
G37*
G36*
G01*
X110349000Y-98770000D02*
X110349000Y-97770000D01*
G75*
G02*
X110400000Y-97719000I51000J0D01*
G01*
X112910000Y-97719000D01*
G75*
G02*
X112961000Y-97770000I0J-51000D01*
G01*
X112961000Y-98770000D01*
G75*
G02*
X112910000Y-98821000I-51000J0D01*
G01*
X110400000Y-98821000D01*
G75*
G02*
X110349000Y-98770000I0J51000D01*
G01*
G37*
G36*
G01*
X118350000Y-105451000D02*
X116650000Y-105451000D01*
G75*
G02*
X116599000Y-105400000I0J51000D01*
G01*
X116599000Y-104100000D01*
G75*
G02*
X116650000Y-104049000I51000J0D01*
G01*
X118350000Y-104049000D01*
G75*
G02*
X118401000Y-104100000I0J-51000D01*
G01*
X118401000Y-105400000D01*
G75*
G02*
X118350000Y-105451000I-51000J0D01*
G01*
G37*
G36*
G01*
X118350000Y-101951000D02*
X116650000Y-101951000D01*
G75*
G02*
X116599000Y-101900000I0J51000D01*
G01*
X116599000Y-100600000D01*
G75*
G02*
X116650000Y-100549000I51000J0D01*
G01*
X118350000Y-100549000D01*
G75*
G02*
X118401000Y-100600000I0J-51000D01*
G01*
X118401000Y-101900000D01*
G75*
G02*
X118350000Y-101951000I-51000J0D01*
G01*
G37*
G36*
G01*
X118350000Y-96201000D02*
X116650000Y-96201000D01*
G75*
G02*
X116599000Y-96150000I0J51000D01*
G01*
X116599000Y-94850000D01*
G75*
G02*
X116650000Y-94799000I51000J0D01*
G01*
X118350000Y-94799000D01*
G75*
G02*
X118401000Y-94850000I0J-51000D01*
G01*
X118401000Y-96150000D01*
G75*
G02*
X118350000Y-96201000I-51000J0D01*
G01*
G37*
G36*
G01*
X118350000Y-99701000D02*
X116650000Y-99701000D01*
G75*
G02*
X116599000Y-99650000I0J51000D01*
G01*
X116599000Y-98350000D01*
G75*
G02*
X116650000Y-98299000I51000J0D01*
G01*
X118350000Y-98299000D01*
G75*
G02*
X118401000Y-98350000I0J-51000D01*
G01*
X118401000Y-99650000D01*
G75*
G02*
X118350000Y-99701000I-51000J0D01*
G01*
G37*
G36*
G01*
X122350000Y-105451000D02*
X120650000Y-105451000D01*
G75*
G02*
X120599000Y-105400000I0J51000D01*
G01*
X120599000Y-104100000D01*
G75*
G02*
X120650000Y-104049000I51000J0D01*
G01*
X122350000Y-104049000D01*
G75*
G02*
X122401000Y-104100000I0J-51000D01*
G01*
X122401000Y-105400000D01*
G75*
G02*
X122350000Y-105451000I-51000J0D01*
G01*
G37*
G36*
G01*
X122350000Y-101951000D02*
X120650000Y-101951000D01*
G75*
G02*
X120599000Y-101900000I0J51000D01*
G01*
X120599000Y-100600000D01*
G75*
G02*
X120650000Y-100549000I51000J0D01*
G01*
X122350000Y-100549000D01*
G75*
G02*
X122401000Y-100600000I0J-51000D01*
G01*
X122401000Y-101900000D01*
G75*
G02*
X122350000Y-101951000I-51000J0D01*
G01*
G37*
G36*
G01*
X122350000Y-96201000D02*
X120650000Y-96201000D01*
G75*
G02*
X120599000Y-96150000I0J51000D01*
G01*
X120599000Y-94850000D01*
G75*
G02*
X120650000Y-94799000I51000J0D01*
G01*
X122350000Y-94799000D01*
G75*
G02*
X122401000Y-94850000I0J-51000D01*
G01*
X122401000Y-96150000D01*
G75*
G02*
X122350000Y-96201000I-51000J0D01*
G01*
G37*
G36*
G01*
X122350000Y-99701000D02*
X120650000Y-99701000D01*
G75*
G02*
X120599000Y-99650000I0J51000D01*
G01*
X120599000Y-98350000D01*
G75*
G02*
X120650000Y-98299000I51000J0D01*
G01*
X122350000Y-98299000D01*
G75*
G02*
X122401000Y-98350000I0J-51000D01*
G01*
X122401000Y-99650000D01*
G75*
G02*
X122350000Y-99701000I-51000J0D01*
G01*
G37*
D14*
X110000000Y-115000000D03*
X110000000Y-125000000D03*
X110000000Y-145000000D03*
G36*
G01*
X132500000Y-131039000D02*
X133500000Y-131039000D01*
G75*
G02*
X133551000Y-131090000I0J-51000D01*
G01*
X133551000Y-133600000D01*
G75*
G02*
X133500000Y-133651000I-51000J0D01*
G01*
X132500000Y-133651000D01*
G75*
G02*
X132449000Y-133600000I0J51000D01*
G01*
X132449000Y-131090000D01*
G75*
G02*
X132500000Y-131039000I51000J0D01*
G01*
G37*
G36*
G01*
X129960000Y-134349000D02*
X130960000Y-134349000D01*
G75*
G02*
X131011000Y-134400000I0J-51000D01*
G01*
X131011000Y-136910000D01*
G75*
G02*
X130960000Y-136961000I-51000J0D01*
G01*
X129960000Y-136961000D01*
G75*
G02*
X129909000Y-136910000I0J51000D01*
G01*
X129909000Y-134400000D01*
G75*
G02*
X129960000Y-134349000I51000J0D01*
G01*
G37*
G36*
G01*
X135040000Y-134349000D02*
X136040000Y-134349000D01*
G75*
G02*
X136091000Y-134400000I0J-51000D01*
G01*
X136091000Y-136910000D01*
G75*
G02*
X136040000Y-136961000I-51000J0D01*
G01*
X135040000Y-136961000D01*
G75*
G02*
X134989000Y-136910000I0J51000D01*
G01*
X134989000Y-134400000D01*
G75*
G02*
X135040000Y-134349000I51000J0D01*
G01*
G37*
G36*
G01*
X126349000Y-136479752D02*
X126349000Y-135520248D01*
G75*
G02*
X126620248Y-135249000I271248J0D01*
G01*
X127379752Y-135249000D01*
G75*
G02*
X127651000Y-135520248I0J-271248D01*
G01*
X127651000Y-136479752D01*
G75*
G02*
X127379752Y-136751000I-271248J0D01*
G01*
X126620248Y-136751000D01*
G75*
G02*
X126349000Y-136479752I0J271248D01*
G01*
G37*
G36*
G01*
X124349000Y-136479752D02*
X124349000Y-135520248D01*
G75*
G02*
X124620248Y-135249000I271248J0D01*
G01*
X125379752Y-135249000D01*
G75*
G02*
X125651000Y-135520248I0J-271248D01*
G01*
X125651000Y-136479752D01*
G75*
G02*
X125379752Y-136751000I-271248J0D01*
G01*
X124620248Y-136751000D01*
G75*
G02*
X124349000Y-136479752I0J271248D01*
G01*
G37*
G36*
G01*
X127651000Y-130520248D02*
X127651000Y-131479752D01*
G75*
G02*
X127379752Y-131751000I-271248J0D01*
G01*
X126620248Y-131751000D01*
G75*
G02*
X126349000Y-131479752I0J271248D01*
G01*
X126349000Y-130520248D01*
G75*
G02*
X126620248Y-130249000I271248J0D01*
G01*
X127379752Y-130249000D01*
G75*
G02*
X127651000Y-130520248I0J-271248D01*
G01*
G37*
G36*
G01*
X125651000Y-130520248D02*
X125651000Y-131479752D01*
G75*
G02*
X125379752Y-131751000I-271248J0D01*
G01*
X124620248Y-131751000D01*
G75*
G02*
X124349000Y-131479752I0J271248D01*
G01*
X124349000Y-130520248D01*
G75*
G02*
X124620248Y-130249000I271248J0D01*
G01*
X125379752Y-130249000D01*
G75*
G02*
X125651000Y-130520248I0J-271248D01*
G01*
G37*
D12*
X137300000Y-127900000D03*
M02*
